<?xml version="1.0" encoding="utf-8" standalone="no"?>
<!DOCTYPE svg PUBLIC "-//W3C//DTD SVG 1.1//EN"
  "http://www.w3.org/Graphics/SVG/1.1/DTD/svg11.dtd">
<svg xmlns:xlink="http://www.w3.org/1999/xlink" width="460.8pt" height="345.6pt" viewBox="0 0 460.8 345.6" xmlns="http://www.w3.org/2000/svg" version="1.1">
 <metadata>
  <rdf:RDF xmlns:dc="http://purl.org/dc/elements/1.1/" xmlns:cc="http://creativecommons.org/ns#" xmlns:rdf="http://www.w3.org/1999/02/22-rdf-syntax-ns#">
   <cc:Work>
    <dc:type rdf:resource="http://purl.org/dc/dcmitype/StillImage"/>
    <dc:date>2025-07-17T19:25:36.326621</dc:date>
    <dc:format>image/svg+xml</dc:format>
    <dc:creator>
     <cc:Agent>
      <dc:title>Matplotlib v3.5.3, https://matplotlib.org/</dc:title>
     </cc:Agent>
    </dc:creator>
   </cc:Work>
  </rdf:RDF>
 </metadata>
 <defs>
  <style type="text/css">*{stroke-linejoin: round; stroke-linecap: butt}</style>
 </defs>
 <g id="figure_1">
  <g id="patch_1">
   <path d="M 0 345.6 
L 460.8 345.6 
L 460.8 0 
L 0 0 
z
" style="fill: #ffffff"/>
  </g>
  <g id="axes_1">
   <g id="patch_2">
    <path d="M 61.828125 132.003203 
L 447.326756 132.003203 
L 447.326756 10.8 
L 61.828125 10.8 
z
" style="fill: #ffffff"/>
   </g>
   <g id="matplotlib.axis_1">
    <g id="xtick_1">
     <g id="line2d_1">
      <path d="M 114.618463 132.003203 
L 114.618463 10.8 
" clip-path="url(#pd4b70cf059)" style="fill: none; stroke-dasharray: 2.96,1.28; stroke-dashoffset: 0; stroke: #b0b0b0; stroke-opacity: 0.2; stroke-width: 0.8"/>
     </g>
     <g id="line2d_2">
      <defs>
       <path id="m7a4ef30c06" d="M 0 0 
L 0 3.5 
" style="stroke: #000000; stroke-width: 0.8"/>
      </defs>
      <g>
       <use xlink:href="#m7a4ef30c06" x="114.618463" y="132.003203" style="stroke: #000000; stroke-width: 0.8"/>
      </g>
     </g>
     <g id="text_1">
      <!-- $\mathdefault{10^{-1}}$ -->
      <g transform="translate(102.868463 146.601641)scale(0.1 -0.1)">
       <defs>
        <path id="DejaVuSans-31" d="M 794 531 
L 1825 531 
L 1825 4091 
L 703 3866 
L 703 4441 
L 1819 4666 
L 2450 4666 
L 2450 531 
L 3481 531 
L 3481 0 
L 794 0 
L 794 531 
z
" transform="scale(0.015625)"/>
        <path id="DejaVuSans-30" d="M 2034 4250 
Q 1547 4250 1301 3770 
Q 1056 3291 1056 2328 
Q 1056 1369 1301 889 
Q 1547 409 2034 409 
Q 2525 409 2770 889 
Q 3016 1369 3016 2328 
Q 3016 3291 2770 3770 
Q 2525 4250 2034 4250 
z
M 2034 4750 
Q 2819 4750 3233 4129 
Q 3647 3509 3647 2328 
Q 3647 1150 3233 529 
Q 2819 -91 2034 -91 
Q 1250 -91 836 529 
Q 422 1150 422 2328 
Q 422 3509 836 4129 
Q 1250 4750 2034 4750 
z
" transform="scale(0.015625)"/>
        <path id="DejaVuSans-2212" d="M 678 2272 
L 4684 2272 
L 4684 1741 
L 678 1741 
L 678 2272 
z
" transform="scale(0.015625)"/>
       </defs>
       <use xlink:href="#DejaVuSans-31" transform="translate(0 0.684375)"/>
       <use xlink:href="#DejaVuSans-30" transform="translate(63.623047 0.684375)"/>
       <use xlink:href="#DejaVuSans-2212" transform="translate(128.203125 38.965625)scale(0.7)"/>
       <use xlink:href="#DejaVuSans-31" transform="translate(186.855469 38.965625)scale(0.7)"/>
      </g>
     </g>
    </g>
    <g id="xtick_2">
     <g id="line2d_3">
      <path d="M 356.106421 132.003203 
L 356.106421 10.8 
" clip-path="url(#pd4b70cf059)" style="fill: none; stroke-dasharray: 2.96,1.28; stroke-dashoffset: 0; stroke: #b0b0b0; stroke-opacity: 0.2; stroke-width: 0.8"/>
     </g>
     <g id="line2d_4">
      <g>
       <use xlink:href="#m7a4ef30c06" x="356.106421" y="132.003203" style="stroke: #000000; stroke-width: 0.8"/>
      </g>
     </g>
     <g id="text_2">
      <!-- $\mathdefault{10^{0}}$ -->
      <g transform="translate(347.306421 146.601641)scale(0.1 -0.1)">
       <use xlink:href="#DejaVuSans-31" transform="translate(0 0.765625)"/>
       <use xlink:href="#DejaVuSans-30" transform="translate(63.623047 0.765625)"/>
       <use xlink:href="#DejaVuSans-30" transform="translate(128.203125 39.046875)scale(0.7)"/>
      </g>
     </g>
    </g>
    <g id="xtick_3">
     <g id="line2d_5">
      <defs>
       <path id="mb21a035c06" d="M 0 0 
L 0 2 
" style="stroke: #000000; stroke-width: 0.6"/>
      </defs>
      <g>
       <use xlink:href="#mb21a035c06" x="77.211505" y="132.003203" style="stroke: #000000; stroke-width: 0.6"/>
      </g>
     </g>
    </g>
    <g id="xtick_4">
     <g id="line2d_6">
      <g>
       <use xlink:href="#mb21a035c06" x="91.215862" y="132.003203" style="stroke: #000000; stroke-width: 0.6"/>
      </g>
     </g>
    </g>
    <g id="xtick_5">
     <g id="line2d_7">
      <g>
       <use xlink:href="#mb21a035c06" x="103.56858" y="132.003203" style="stroke: #000000; stroke-width: 0.6"/>
      </g>
     </g>
    </g>
    <g id="xtick_6">
     <g id="line2d_8">
      <g>
       <use xlink:href="#mb21a035c06" x="187.313582" y="132.003203" style="stroke: #000000; stroke-width: 0.6"/>
      </g>
     </g>
    </g>
    <g id="xtick_7">
     <g id="line2d_9">
      <g>
       <use xlink:href="#mb21a035c06" x="229.8375" y="132.003203" style="stroke: #000000; stroke-width: 0.6"/>
      </g>
     </g>
    </g>
    <g id="xtick_8">
     <g id="line2d_10">
      <g>
       <use xlink:href="#mb21a035c06" x="260.008701" y="132.003203" style="stroke: #000000; stroke-width: 0.6"/>
      </g>
     </g>
    </g>
    <g id="xtick_9">
     <g id="line2d_11">
      <g>
       <use xlink:href="#mb21a035c06" x="283.411302" y="132.003203" style="stroke: #000000; stroke-width: 0.6"/>
      </g>
     </g>
    </g>
    <g id="xtick_10">
     <g id="line2d_12">
      <g>
       <use xlink:href="#mb21a035c06" x="302.532619" y="132.003203" style="stroke: #000000; stroke-width: 0.6"/>
      </g>
     </g>
    </g>
    <g id="xtick_11">
     <g id="line2d_13">
      <g>
       <use xlink:href="#mb21a035c06" x="318.699463" y="132.003203" style="stroke: #000000; stroke-width: 0.6"/>
      </g>
     </g>
    </g>
    <g id="xtick_12">
     <g id="line2d_14">
      <g>
       <use xlink:href="#mb21a035c06" x="332.703819" y="132.003203" style="stroke: #000000; stroke-width: 0.6"/>
      </g>
     </g>
    </g>
    <g id="xtick_13">
     <g id="line2d_15">
      <g>
       <use xlink:href="#mb21a035c06" x="345.056538" y="132.003203" style="stroke: #000000; stroke-width: 0.6"/>
      </g>
     </g>
    </g>
    <g id="xtick_14">
     <g id="line2d_16">
      <g>
       <use xlink:href="#mb21a035c06" x="428.801539" y="132.003203" style="stroke: #000000; stroke-width: 0.6"/>
      </g>
     </g>
    </g>
    <g id="text_3">
     <!-- $q~(\mathrm{\AA}^{-1})$ -->
     <g transform="translate(230.077441 165.701328)scale(0.14 -0.14)">
      <defs>
       <path id="DejaVuSans-Oblique-71" d="M 2669 525 
Q 2438 222 2123 65 
Q 1809 -91 1428 -91 
Q 897 -91 595 267 
Q 294 625 294 1253 
Q 294 1759 480 2231 
Q 666 2703 1013 3078 
Q 1238 3322 1530 3453 
Q 1822 3584 2144 3584 
Q 2531 3584 2781 3431 
Q 3031 3278 3144 2969 
L 3244 3494 
L 3822 3494 
L 2888 -1319 
L 2309 -1319 
L 2669 525 
z
M 891 1338 
Q 891 875 1084 633 
Q 1278 391 1644 391 
Q 2188 391 2572 911 
Q 2956 1431 2956 2175 
Q 2956 2625 2757 2864 
Q 2559 3103 2188 3103 
Q 1916 3103 1684 2976 
Q 1453 2850 1281 2606 
Q 1100 2350 995 2006 
Q 891 1663 891 1338 
z
" transform="scale(0.015625)"/>
       <path id="DejaVuSans-28" d="M 1984 4856 
Q 1566 4138 1362 3434 
Q 1159 2731 1159 2009 
Q 1159 1288 1364 580 
Q 1569 -128 1984 -844 
L 1484 -844 
Q 1016 -109 783 600 
Q 550 1309 550 2009 
Q 550 2706 781 3412 
Q 1013 4119 1484 4856 
L 1984 4856 
z
" transform="scale(0.015625)"/>
       <path id="DejaVuSans-c5" d="M 2663 5081 
Q 2663 5278 2523 5417 
Q 2384 5556 2188 5556 
Q 1988 5556 1852 5420 
Q 1716 5284 1716 5081 
Q 1716 4884 1853 4746 
Q 1991 4609 2188 4609 
Q 2384 4609 2523 4746 
Q 2663 4884 2663 5081 
z
M 2188 4044 
L 1338 1722 
L 3041 1722 
L 2188 4044 
z
M 1716 4366 
Q 1525 4494 1428 4673 
Q 1331 4853 1331 5081 
Q 1331 5441 1579 5691 
Q 1828 5941 2188 5941 
Q 2544 5941 2795 5689 
Q 3047 5438 3047 5081 
Q 3047 4863 2948 4678 
Q 2850 4494 2663 4366 
L 4325 0 
L 3669 0 
L 3244 1197 
L 1141 1197 
L 716 0 
L 50 0 
L 1716 4366 
z
" transform="scale(0.015625)"/>
       <path id="DejaVuSans-29" d="M 513 4856 
L 1013 4856 
Q 1481 4119 1714 3412 
Q 1947 2706 1947 2009 
Q 1947 1309 1714 600 
Q 1481 -109 1013 -844 
L 513 -844 
Q 928 -128 1133 580 
Q 1338 1288 1338 2009 
Q 1338 2731 1133 3434 
Q 928 4138 513 4856 
z
" transform="scale(0.015625)"/>
      </defs>
      <use xlink:href="#DejaVuSans-Oblique-71" transform="translate(0 0.171875)"/>
      <use xlink:href="#DejaVuSans-28" transform="translate(95.946941 0.171875)"/>
      <use xlink:href="#DejaVuSans-c5" transform="translate(134.960613 0.171875)"/>
      <use xlink:href="#DejaVuSans-2212" transform="translate(204.325847 38.453125)scale(0.7)"/>
      <use xlink:href="#DejaVuSans-31" transform="translate(262.978191 38.453125)scale(0.7)"/>
      <use xlink:href="#DejaVuSans-29" transform="translate(310.248699 0.171875)"/>
     </g>
    </g>
   </g>
   <g id="matplotlib.axis_2">
    <g id="ytick_1">
     <g id="line2d_17">
      <path d="M 61.828125 65.009627 
L 447.326756 65.009627 
" clip-path="url(#pd4b70cf059)" style="fill: none; stroke-dasharray: 2.96,1.28; stroke-dashoffset: 0; stroke: #b0b0b0; stroke-opacity: 0.2; stroke-width: 0.8"/>
     </g>
     <g id="line2d_18">
      <defs>
       <path id="m51d3d82c28" d="M 0 0 
L -3.5 0 
" style="stroke: #000000; stroke-width: 0.8"/>
      </defs>
      <g>
       <use xlink:href="#m51d3d82c28" x="61.828125" y="65.009627" style="stroke: #000000; stroke-width: 0.8"/>
      </g>
     </g>
     <g id="text_4">
      <!-- $\mathdefault{10^{-2}}$ -->
      <g transform="translate(31.328125 68.808846)scale(0.1 -0.1)">
       <defs>
        <path id="DejaVuSans-32" d="M 1228 531 
L 3431 531 
L 3431 0 
L 469 0 
L 469 531 
Q 828 903 1448 1529 
Q 2069 2156 2228 2338 
Q 2531 2678 2651 2914 
Q 2772 3150 2772 3378 
Q 2772 3750 2511 3984 
Q 2250 4219 1831 4219 
Q 1534 4219 1204 4116 
Q 875 4013 500 3803 
L 500 4441 
Q 881 4594 1212 4672 
Q 1544 4750 1819 4750 
Q 2544 4750 2975 4387 
Q 3406 4025 3406 3419 
Q 3406 3131 3298 2873 
Q 3191 2616 2906 2266 
Q 2828 2175 2409 1742 
Q 1991 1309 1228 531 
z
" transform="scale(0.015625)"/>
       </defs>
       <use xlink:href="#DejaVuSans-31" transform="translate(0 0.765625)"/>
       <use xlink:href="#DejaVuSans-30" transform="translate(63.623047 0.765625)"/>
       <use xlink:href="#DejaVuSans-2212" transform="translate(128.203125 39.046875)scale(0.7)"/>
       <use xlink:href="#DejaVuSans-32" transform="translate(186.855469 39.046875)scale(0.7)"/>
      </g>
     </g>
    </g>
    <g id="ytick_2">
     <g id="line2d_19">
      <defs>
       <path id="mdbaa6d5ba3" d="M 0 0 
L -2 0 
" style="stroke: #000000; stroke-width: 0.6"/>
      </defs>
      <g>
       <use xlink:href="#mdbaa6d5ba3" x="61.828125" y="125.008639" style="stroke: #000000; stroke-width: 0.6"/>
      </g>
     </g>
    </g>
    <g id="ytick_3">
     <g id="line2d_20">
      <g>
       <use xlink:href="#mdbaa6d5ba3" x="61.828125" y="109.89311" style="stroke: #000000; stroke-width: 0.6"/>
      </g>
     </g>
    </g>
    <g id="ytick_4">
     <g id="line2d_21">
      <g>
       <use xlink:href="#mdbaa6d5ba3" x="61.828125" y="99.168471" style="stroke: #000000; stroke-width: 0.6"/>
      </g>
     </g>
    </g>
    <g id="ytick_5">
     <g id="line2d_22">
      <g>
       <use xlink:href="#mdbaa6d5ba3" x="61.828125" y="90.849795" style="stroke: #000000; stroke-width: 0.6"/>
      </g>
     </g>
    </g>
    <g id="ytick_6">
     <g id="line2d_23">
      <g>
       <use xlink:href="#mdbaa6d5ba3" x="61.828125" y="84.052942" style="stroke: #000000; stroke-width: 0.6"/>
      </g>
     </g>
    </g>
    <g id="ytick_7">
     <g id="line2d_24">
      <g>
       <use xlink:href="#mdbaa6d5ba3" x="61.828125" y="78.306284" style="stroke: #000000; stroke-width: 0.6"/>
      </g>
     </g>
    </g>
    <g id="ytick_8">
     <g id="line2d_25">
      <g>
       <use xlink:href="#mdbaa6d5ba3" x="61.828125" y="73.328303" style="stroke: #000000; stroke-width: 0.6"/>
      </g>
     </g>
    </g>
    <g id="ytick_9">
     <g id="line2d_26">
      <g>
       <use xlink:href="#mdbaa6d5ba3" x="61.828125" y="68.937413" style="stroke: #000000; stroke-width: 0.6"/>
      </g>
     </g>
    </g>
    <g id="ytick_10">
     <g id="line2d_27">
      <g>
       <use xlink:href="#mdbaa6d5ba3" x="61.828125" y="39.169459" style="stroke: #000000; stroke-width: 0.6"/>
      </g>
     </g>
    </g>
    <g id="ytick_11">
     <g id="line2d_28">
      <g>
       <use xlink:href="#mdbaa6d5ba3" x="61.828125" y="24.05393" style="stroke: #000000; stroke-width: 0.6"/>
      </g>
     </g>
    </g>
    <g id="ytick_12">
     <g id="line2d_29">
      <g>
       <use xlink:href="#mdbaa6d5ba3" x="61.828125" y="13.329291" style="stroke: #000000; stroke-width: 0.6"/>
      </g>
     </g>
    </g>
    <g id="text_5">
     <!-- $I(q)~\mathrm{(a.u.)}$ -->
     <g transform="translate(24.388125 107.031602)rotate(-90)scale(0.14 -0.14)">
      <defs>
       <path id="DejaVuSans-Oblique-49" d="M 1081 4666 
L 1716 4666 
L 806 0 
L 172 0 
L 1081 4666 
z
" transform="scale(0.015625)"/>
       <path id="DejaVuSans-61" d="M 2194 1759 
Q 1497 1759 1228 1600 
Q 959 1441 959 1056 
Q 959 750 1161 570 
Q 1363 391 1709 391 
Q 2188 391 2477 730 
Q 2766 1069 2766 1631 
L 2766 1759 
L 2194 1759 
z
M 3341 1997 
L 3341 0 
L 2766 0 
L 2766 531 
Q 2569 213 2275 61 
Q 1981 -91 1556 -91 
Q 1019 -91 701 211 
Q 384 513 384 1019 
Q 384 1609 779 1909 
Q 1175 2209 1959 2209 
L 2766 2209 
L 2766 2266 
Q 2766 2663 2505 2880 
Q 2244 3097 1772 3097 
Q 1472 3097 1187 3025 
Q 903 2953 641 2809 
L 641 3341 
Q 956 3463 1253 3523 
Q 1550 3584 1831 3584 
Q 2591 3584 2966 3190 
Q 3341 2797 3341 1997 
z
" transform="scale(0.015625)"/>
       <path id="DejaVuSans-2e" d="M 684 794 
L 1344 794 
L 1344 0 
L 684 0 
L 684 794 
z
" transform="scale(0.015625)"/>
       <path id="DejaVuSans-75" d="M 544 1381 
L 544 3500 
L 1119 3500 
L 1119 1403 
Q 1119 906 1312 657 
Q 1506 409 1894 409 
Q 2359 409 2629 706 
Q 2900 1003 2900 1516 
L 2900 3500 
L 3475 3500 
L 3475 0 
L 2900 0 
L 2900 538 
Q 2691 219 2414 64 
Q 2138 -91 1772 -91 
Q 1169 -91 856 284 
Q 544 659 544 1381 
z
M 1991 3584 
L 1991 3584 
z
" transform="scale(0.015625)"/>
      </defs>
      <use xlink:href="#DejaVuSans-Oblique-49" transform="translate(0 0.125)"/>
      <use xlink:href="#DejaVuSans-28" transform="translate(29.492188 0.125)"/>
      <use xlink:href="#DejaVuSans-Oblique-71" transform="translate(68.505859 0.125)"/>
      <use xlink:href="#DejaVuSans-29" transform="translate(131.982422 0.125)"/>
      <use xlink:href="#DejaVuSans-28" transform="translate(203.466472 0.125)"/>
      <use xlink:href="#DejaVuSans-61" transform="translate(242.480144 0.125)"/>
      <use xlink:href="#DejaVuSans-2e" transform="translate(303.759441 0.125)"/>
      <use xlink:href="#DejaVuSans-75" transform="translate(355.028972 0.125)"/>
      <use xlink:href="#DejaVuSans-2e" transform="translate(418.407878 0.125)"/>
      <use xlink:href="#DejaVuSans-29" transform="translate(469.67741 0.125)"/>
     </g>
    </g>
   </g>
   <g id="line2d_30">
    <path d="M 61.828125 16.309237 
L 76.897983 28.575381 
L 90.072005 43.467407 
L 101.774331 57.67478 
L 112.30098 69.785429 
L 121.866765 78.43513 
L 130.63252 86.744018 
L 146.231573 98.84275 
L 153.239351 103.417751 
L 159.808061 106.75094 
L 165.989492 107.484528 
L 171.826781 111.934603 
L 177.356233 112.539661 
L 182.608697 115.058703 
L 192.384776 119.45492 
L 196.951049 119.444186 
L 205.527226 120.633045 
L 209.565901 121.720786 
L 213.454802 122.512822 
L 217.204641 122.288152 
L 220.825021 123.188863 
L 224.324583 123.469878 
L 227.711132 123.156783 
L 230.991739 123.904569 
L 234.172832 124.502519 
L 237.260271 124.182226 
L 240.259412 124.544646 
L 243.175167 124.441371 
L 246.012047 125.722547 
L 248.774207 125.659786 
L 251.465483 124.878451 
L 254.089421 124.690456 
L 256.649309 125.744575 
L 259.148201 125.54976 
L 261.588934 126.121358 
L 263.974156 124.284141 
L 266.306334 126.493967 
L 268.587777 126.098219 
L 270.820646 126.222749 
L 273.006965 126.167516 
L 275.148636 125.450597 
L 279.305078 126.420953 
L 281.323115 126.036255 
L 283.303053 126.404009 
L 285.246304 126.423764 
L 287.154203 125.071836 
L 289.028013 125.635637 
L 290.868931 125.808486 
L 292.678092 126.370101 
L 296.205396 126.10375 
L 297.925536 125.46616 
L 299.617917 125.531588 
L 301.283422 125.34814 
L 302.92289 126.368316 
L 304.537124 125.476829 
L 307.692914 125.970905 
L 309.235899 126.44877 
L 310.756512 125.832034 
L 312.255392 125.364278 
L 313.733152 126.269371 
L 315.190379 125.395627 
L 316.627635 125.239692 
L 319.444374 125.361465 
L 320.824874 125.460848 
L 322.187437 125.21583 
L 323.532525 124.805533 
L 324.86058 124.87874 
L 326.172028 124.522278 
L 327.467279 125.281091 
L 328.746728 124.989173 
L 330.010757 124.456317 
L 333.713927 123.750274 
L 334.919819 124.269889 
L 336.112002 124.079551 
L 337.290786 123.212223 
L 339.609336 123.539735 
L 340.749668 122.887403 
L 341.877735 121.995337 
L 342.993797 123.162966 
L 345.190911 122.419706 
L 346.272445 121.823485 
L 347.34294 121.969175 
L 348.402618 121.41772 
L 351.518886 120.269994 
L 352.5374 120.121538 
L 353.546117 119.798208 
L 354.545225 119.874721 
L 355.534904 119.7014 
L 356.515332 119.410315 
L 357.486678 118.701504 
L 358.449111 118.625267 
L 360.34788 117.683979 
L 361.284526 117.267419 
L 364.949638 116.065271 
L 365.846246 115.581911 
L 367.616791 115.031883 
L 368.490978 114.387465 
L 369.35794 114.019806 
L 370.217793 113.029441 
L 371.070654 112.995413 
L 371.916635 112.776084 
L 372.755847 112.063185 
L 376.047112 110.130915 
L 376.854039 109.584619 
L 377.654805 108.841468 
L 379.238225 107.905998 
L 380.798094 107.045643 
L 381.569413 106.246041 
L 382.335101 105.820474 
L 383.09524 105.024287 
L 383.849909 104.644475 
L 384.599186 103.813268 
L 385.343148 103.377888 
L 386.815424 102.001892 
L 388.267319 100.992454 
L 388.985797 100.244007 
L 389.699387 99.816907 
L 390.408155 99.19417 
L 392.506163 96.844586 
L 393.196275 96.215069 
L 393.881876 95.416242 
L 394.563024 94.906497 
L 395.239776 94.177737 
L 395.91219 93.651201 
L 396.58032 92.773026 
L 397.24422 92.256209 
L 400.502108 88.479644 
L 401.141715 87.860756 
L 404.282515 84.044665 
L 404.899543 83.357808 
L 405.512963 82.496163 
L 406.729143 81.10506 
L 415.426955 70.392077 
L 419.786752 66.062529 
L 421.900516 64.366469 
L 424.484186 62.914399 
L 424.993369 62.72554 
L 425.500092 62.750683 
L 426.004378 62.515005 
L 428.490066 62.35573 
L 428.980212 62.432984 
L 429.468077 62.370917 
L 430.437052 62.764535 
L 431.397156 63.183852 
L 434.225832 64.865945 
L 435.612066 66.033108 
L 437.432327 67.927134 
L 439.664106 70.416582 
L 440.543688 71.748083 
L 441.415954 72.852199 
L 443.990051 76.478374 
L 444.834232 77.878781 
L 445.253788 79.575371 
L 445.671673 79.292796 
L 446.087899 79.875458 
L 446.502479 81.867455 
L 446.915428 82.213142 
L 447.326756 84.249611 
L 447.326756 84.249611 
" clip-path="url(#pd4b70cf059)" style="fill: none; stroke: #7a0403; stroke-width: 1.5; stroke-linecap: square"/>
   </g>
   <g id="line2d_31">
    <path d="M 61.828125 19.82012 
L 76.897983 32.724401 
L 101.774331 60.147794 
L 112.30098 70.905971 
L 121.866765 78.654872 
L 130.63252 86.279296 
L 138.721799 93.156268 
L 146.231573 98.082547 
L 159.808061 105.460825 
L 165.989492 106.858887 
L 171.826781 109.925157 
L 177.356233 111.628214 
L 182.608697 113.575643 
L 187.610605 114.718985 
L 192.384776 117.118748 
L 196.951049 117.007567 
L 201.326777 117.809942 
L 209.565901 118.716366 
L 213.454802 119.435481 
L 217.204641 119.72822 
L 220.825021 120.295318 
L 224.324583 119.432215 
L 227.711132 119.876453 
L 230.991739 121.365455 
L 234.172832 121.156642 
L 237.260271 121.494269 
L 240.259412 121.297297 
L 243.175167 121.881608 
L 248.774207 122.695222 
L 251.465483 122.281436 
L 254.089421 121.011599 
L 256.649309 122.482016 
L 259.148201 122.327481 
L 261.588934 122.410262 
L 263.974156 121.999192 
L 266.306334 123.10644 
L 268.587777 123.010495 
L 270.820646 122.559065 
L 273.006965 122.771717 
L 275.148636 122.262699 
L 277.247446 123.3031 
L 279.305078 122.885554 
L 281.323115 122.843552 
L 283.303053 122.985897 
L 285.246304 123.324395 
L 287.154203 122.674822 
L 289.028013 122.997306 
L 290.868931 123.682732 
L 294.456572 122.784095 
L 297.925536 122.372217 
L 299.617917 122.510022 
L 301.283422 122.904799 
L 302.92289 123.029261 
L 304.537124 122.437302 
L 306.126889 122.583875 
L 307.692914 123.03201 
L 309.235899 123.281192 
L 312.255392 122.419249 
L 313.733152 122.709191 
L 315.190379 122.139669 
L 316.627635 122.387355 
L 318.045461 122.266643 
L 319.444374 122.942082 
L 320.824874 122.028989 
L 322.187437 122.357254 
L 323.532525 122.271365 
L 324.86058 122.005594 
L 327.467279 122.459936 
L 331.259732 121.423893 
L 334.919819 121.627315 
L 336.112002 121.342771 
L 338.456468 121.153605 
L 339.609336 120.44597 
L 340.749668 120.165947 
L 341.877735 120.016671 
L 342.993797 120.070564 
L 344.098108 119.884937 
L 345.190911 119.88106 
L 346.272445 119.659383 
L 349.451696 118.514105 
L 350.490384 118.563878 
L 352.5374 117.726568 
L 353.546117 117.278546 
L 354.545225 117.588031 
L 357.486678 116.502287 
L 358.449111 116.553441 
L 359.402793 116.09265 
L 360.34788 116.069618 
L 361.284526 115.162207 
L 362.212882 114.718629 
L 364.045298 114.154721 
L 364.949638 114.131115 
L 365.846246 113.442221 
L 366.735255 113.032676 
L 367.616791 113.025189 
L 368.490978 112.422298 
L 369.35794 111.974225 
L 370.217793 111.380741 
L 371.070654 111.410628 
L 371.916635 110.547461 
L 372.755847 110.274927 
L 373.588397 109.734583 
L 376.047112 108.722668 
L 376.854039 107.987447 
L 377.654805 107.499825 
L 378.449503 107.153717 
L 379.238225 106.542931 
L 380.021059 106.279069 
L 380.798094 105.815295 
L 381.569413 105.137838 
L 382.335101 104.617404 
L 383.09524 103.910156 
L 385.343148 102.420464 
L 386.08187 101.736276 
L 386.815424 101.324035 
L 388.267319 100.113402 
L 391.81148 97.020977 
L 392.506163 96.242989 
L 393.196275 95.711321 
L 393.881876 94.875874 
L 395.239776 93.762636 
L 397.903944 91.081676 
L 399.858576 88.885509 
L 401.141715 87.63165 
L 403.661834 84.655353 
L 404.899543 83.208149 
L 405.512963 82.377573 
L 407.331984 80.380383 
L 409.119993 78.120518 
L 409.709285 77.55499 
L 412.033891 74.487001 
L 413.744144 72.51965 
L 417.08319 68.844937 
L 419.251586 66.820854 
L 421.900516 64.634042 
L 424.484186 63.165165 
L 427.997619 62.644569 
L 428.980212 62.777345 
L 429.468077 62.694187 
L 429.953683 63.0744 
L 431.397156 63.613618 
L 433.291392 64.629457 
L 434.689949 65.650346 
L 437.882498 68.840142 
L 439.221534 70.444078 
L 440.980728 72.695993 
L 442.710899 75.030154 
L 443.139019 75.711699 
L 443.565398 76.026038 
L 443.990051 76.973349 
L 444.412991 77.461852 
L 444.834232 78.199217 
L 445.253788 80.176183 
L 445.671673 79.630233 
L 446.087899 80.239359 
L 446.502479 81.851644 
L 446.915428 82.07746 
L 447.326756 84.033327 
L 447.326756 84.033327 
" clip-path="url(#pd4b70cf059)" style="fill: none; stroke: #e4450a; stroke-width: 1.5; stroke-linecap: square"/>
   </g>
   <g id="line2d_32">
    <path d="M 61.828125 31.747659 
L 76.897983 43.015249 
L 90.072005 54.78866 
L 101.774331 67.144312 
L 112.30098 76.634982 
L 130.63252 91.202723 
L 138.721799 97.809981 
L 146.231573 101.57687 
L 159.808061 108.736379 
L 165.989492 110.038629 
L 171.826781 112.305938 
L 177.356233 113.537304 
L 182.608697 115.364961 
L 187.610605 116.868507 
L 192.384776 118.177948 
L 196.951049 118.366482 
L 201.326777 119.70752 
L 205.527226 119.842074 
L 209.565901 120.473897 
L 213.454802 120.431477 
L 217.204641 120.80701 
L 220.825021 121.525815 
L 224.324583 121.312838 
L 227.711132 121.630688 
L 230.991739 122.582602 
L 234.172832 123.034406 
L 237.260271 122.594946 
L 240.259412 122.671907 
L 243.175167 123.611595 
L 246.012047 123.468974 
L 248.774207 123.756233 
L 251.465483 123.646517 
L 254.089421 122.500197 
L 256.649309 123.648425 
L 261.588934 123.956014 
L 263.974156 122.913499 
L 266.306334 124.302776 
L 270.820646 123.376367 
L 273.006965 124.032356 
L 275.148636 123.362391 
L 277.247446 123.870886 
L 279.305078 123.793038 
L 281.323115 124.43325 
L 283.303053 124.435447 
L 285.246304 124.618248 
L 287.154203 123.389504 
L 289.028013 123.272703 
L 292.678092 124.753346 
L 294.456572 124.66021 
L 296.205396 124.189298 
L 297.925536 123.593482 
L 299.617917 123.71007 
L 301.283422 124.239893 
L 302.92289 124.374119 
L 304.537124 123.377941 
L 306.126889 123.511883 
L 307.692914 124.082611 
L 309.235899 124.276561 
L 310.756512 124.081832 
L 312.255392 123.616014 
L 313.733152 123.961331 
L 315.190379 123.426111 
L 316.627635 123.912507 
L 318.045461 123.46013 
L 319.444374 123.76124 
L 320.824874 123.225691 
L 322.187437 123.18373 
L 323.532525 123.319351 
L 326.172028 122.842053 
L 327.467279 123.123687 
L 330.010757 122.316897 
L 331.259732 122.453184 
L 332.494008 121.891259 
L 336.112002 122.335733 
L 337.290786 121.802795 
L 338.456468 121.805017 
L 339.609336 121.651528 
L 340.749668 120.819982 
L 344.098108 120.782482 
L 345.190911 120.143791 
L 348.402618 119.735257 
L 350.490384 119.169038 
L 351.518886 118.615863 
L 352.5374 118.720846 
L 353.546117 118.103999 
L 354.545225 117.974414 
L 357.486678 117.158122 
L 358.449111 116.760375 
L 359.402793 116.832547 
L 360.34788 116.475866 
L 362.212882 115.456722 
L 364.949638 114.6213 
L 365.846246 113.770258 
L 367.616791 113.426199 
L 369.35794 112.481746 
L 370.217793 111.693176 
L 371.070654 111.838538 
L 371.916635 111.411641 
L 372.755847 110.522311 
L 374.41439 109.916051 
L 375.233928 109.101076 
L 376.047112 108.977839 
L 376.854039 108.30659 
L 377.654805 107.984118 
L 378.449503 107.528153 
L 379.238225 106.789255 
L 380.798094 105.866959 
L 381.569413 105.168944 
L 382.335101 104.821784 
L 383.09524 104.074062 
L 383.849909 103.724583 
L 384.599186 102.956596 
L 385.343148 102.36698 
L 386.08187 102.036164 
L 386.815424 101.289675 
L 387.543884 100.739825 
L 388.985797 99.439988 
L 389.699387 99.006738 
L 391.112164 97.673758 
L 392.506163 96.091953 
L 393.196275 95.639266 
L 393.881876 94.818832 
L 394.563024 94.30055 
L 395.239776 93.582545 
L 395.91219 93.113418 
L 399.211071 89.484596 
L 399.858576 88.987173 
L 400.502108 88.179027 
L 401.141715 87.610487 
L 403.037459 85.236107 
L 408.527371 78.901477 
L 409.119993 77.970289 
L 409.709285 77.444191 
L 413.177153 73.186885 
L 418.172992 67.748946 
L 420.3192 65.891872 
L 421.900516 64.704734 
L 423.972519 63.515181 
L 424.993369 63.09979 
L 425.500092 63.076064 
L 426.004378 62.842605 
L 427.997619 62.613636 
L 428.490066 62.774565 
L 429.468077 62.821704 
L 431.873932 63.815878 
L 433.291392 64.585932 
L 435.152021 66.000353 
L 438.330746 69.271618 
L 439.664106 70.876478 
L 441.849381 73.774161 
L 442.281025 74.10479 
L 443.139019 75.467945 
L 443.565398 75.956897 
L 444.834232 78.028299 
L 445.253788 79.429533 
L 445.671673 79.199042 
L 446.087899 79.98407 
L 446.502479 81.138734 
L 446.915428 81.15597 
L 447.326756 83.14187 
L 447.326756 83.14187 
" clip-path="url(#pd4b70cf059)" style="fill: none; stroke: #faba39; stroke-width: 1.5; stroke-linecap: square"/>
   </g>
   <g id="line2d_33">
    <path d="M 61.828125 24.293568 
L 76.897983 36.95643 
L 101.774331 59.838579 
L 112.30098 70.407126 
L 121.866765 77.557094 
L 130.63252 85.657809 
L 138.721799 92.343558 
L 146.231573 96.416694 
L 159.808061 104.269207 
L 165.989492 105.511264 
L 171.826781 108.366315 
L 177.356233 110.076242 
L 187.610605 112.553797 
L 192.384776 114.262986 
L 196.951049 114.334454 
L 209.565901 116.054508 
L 213.454802 115.853858 
L 217.204641 115.952006 
L 220.825021 116.602269 
L 224.324583 116.644211 
L 227.711132 116.253919 
L 230.991739 117.655051 
L 234.172832 118.548507 
L 237.260271 117.845955 
L 240.259412 118.173063 
L 246.012047 119.390986 
L 248.774207 118.992805 
L 251.465483 118.971797 
L 254.089421 117.967461 
L 256.649309 119.295157 
L 259.148201 119.07609 
L 261.588934 120.118566 
L 263.974156 118.881376 
L 266.306334 120.32642 
L 268.587777 119.829041 
L 270.820646 119.462986 
L 273.006965 120.414108 
L 275.148636 119.398493 
L 277.247446 119.937578 
L 279.305078 119.8434 
L 281.323115 119.167398 
L 283.303053 120.199364 
L 285.246304 120.164407 
L 289.028013 119.775312 
L 292.678092 120.756394 
L 294.456572 120.103214 
L 296.205396 119.825015 
L 299.617917 120.358253 
L 301.283422 120.264919 
L 302.92289 120.778173 
L 304.537124 119.805001 
L 306.126889 119.928613 
L 307.692914 120.456216 
L 309.235899 120.40375 
L 310.756512 119.631909 
L 312.255392 120.096997 
L 313.733152 120.734454 
L 315.190379 119.685056 
L 316.627635 119.788729 
L 318.045461 120.052298 
L 322.187437 120.395501 
L 323.532525 119.939241 
L 324.86058 119.222487 
L 327.467279 120.32123 
L 328.746728 119.324131 
L 330.010757 119.274268 
L 331.259732 119.433179 
L 332.494008 119.259922 
L 336.112002 119.13331 
L 337.290786 118.518142 
L 338.456468 119.110926 
L 339.609336 118.415192 
L 341.877735 117.952611 
L 342.993797 118.368766 
L 345.190911 117.99009 
L 346.272445 118.007451 
L 349.451696 117.155014 
L 351.518886 116.29442 
L 352.5374 116.822852 
L 353.546117 115.915877 
L 354.545225 115.75689 
L 355.534904 115.719052 
L 356.515332 115.157132 
L 358.449111 114.760528 
L 359.402793 114.899483 
L 360.34788 114.470953 
L 361.284526 113.816407 
L 362.212882 113.723201 
L 363.133092 113.037665 
L 364.949638 112.858489 
L 366.735255 111.790815 
L 367.616791 111.899202 
L 368.490978 111.522962 
L 369.35794 110.667643 
L 370.217793 110.23374 
L 371.070654 110.507343 
L 371.916635 109.771259 
L 372.755847 109.189571 
L 374.41439 108.573704 
L 376.047112 107.517665 
L 376.854039 107.142062 
L 377.654805 106.989074 
L 379.238225 105.783885 
L 380.021059 105.104261 
L 380.798094 104.97489 
L 381.569413 103.903949 
L 382.335101 103.829339 
L 383.09524 102.951196 
L 383.849909 102.598909 
L 385.343148 101.70875 
L 386.08187 100.807423 
L 386.815424 100.709603 
L 387.543884 99.822136 
L 388.267319 99.524289 
L 391.112164 97.200355 
L 392.506163 95.543794 
L 393.196275 95.140068 
L 393.881876 94.383995 
L 395.239776 93.223347 
L 397.24422 91.362969 
L 398.559544 89.858702 
L 403.661834 84.335484 
L 407.331984 80.130283 
L 407.93138 79.321342 
L 409.709285 77.405442 
L 412.60708 73.862899 
L 413.744144 72.596864 
L 415.426955 70.765069 
L 418.713676 67.439294 
L 422.422367 64.642945 
L 422.941635 64.512826 
L 424.484186 63.561997 
L 427.005734 63.104306 
L 427.502849 63.137293 
L 427.997619 62.975984 
L 428.490066 63.149565 
L 429.468077 63.132668 
L 429.953683 63.405478 
L 430.918202 63.724801 
L 434.225832 65.613256 
L 435.152021 66.371854 
L 436.070101 67.366898 
L 437.882498 69.240787 
L 439.221534 70.721965 
L 440.543688 72.421276 
L 442.710899 75.22726 
L 443.139019 76.086534 
L 443.565398 76.530647 
L 444.412991 77.868625 
L 444.834232 78.312057 
L 445.253788 79.91337 
L 445.671673 79.62298 
L 446.087899 80.358814 
L 446.502479 81.48583 
L 446.915428 81.65536 
L 447.326756 84.211421 
L 447.326756 84.211421 
" clip-path="url(#pd4b70cf059)" style="fill: none; stroke: #a1fd3d; stroke-width: 1.5; stroke-linecap: square"/>
   </g>
   <g id="line2d_34">
    <path d="M 61.828125 53.125459 
L 76.897983 60.923354 
L 90.072005 67.956879 
L 101.774331 79.512533 
L 112.30098 87.94513 
L 121.866765 90.860359 
L 130.63252 98.260186 
L 138.721799 102.777094 
L 146.231573 105.830703 
L 153.239351 109.287028 
L 159.808061 111.626793 
L 165.989492 112.452255 
L 171.826781 114.231113 
L 177.356233 115.699807 
L 182.608697 116.291455 
L 187.610605 117.99467 
L 192.384776 118.856813 
L 196.951049 118.844507 
L 201.326777 118.092869 
L 205.527226 118.568427 
L 209.565901 119.477497 
L 213.454802 120.192239 
L 217.204641 120.079008 
L 220.825021 121.013377 
L 224.324583 120.705179 
L 227.711132 120.195702 
L 230.991739 121.382213 
L 234.172832 121.966619 
L 237.260271 121.378138 
L 240.259412 121.863734 
L 243.175167 120.862664 
L 246.012047 122.259099 
L 248.774207 122.824114 
L 251.465483 121.661322 
L 254.089421 121.067145 
L 256.649309 122.393249 
L 261.588934 122.465587 
L 263.974156 121.487089 
L 266.306334 122.416042 
L 268.587777 122.771365 
L 270.820646 122.634681 
L 273.006965 122.245758 
L 275.148636 121.295282 
L 277.247446 121.939275 
L 279.305078 122.873683 
L 281.323115 122.227789 
L 283.303053 122.972876 
L 285.246304 123.117874 
L 287.154203 122.001394 
L 289.028013 122.746103 
L 290.868931 122.194654 
L 292.678092 122.617509 
L 294.456572 122.116012 
L 296.205396 122.5873 
L 297.925536 122.067391 
L 299.617917 122.221538 
L 301.283422 121.877997 
L 302.92289 122.472247 
L 306.126889 122.138681 
L 307.692914 122.264844 
L 309.235899 123.238792 
L 310.756512 122.577995 
L 312.255392 122.498213 
L 313.733152 122.642122 
L 315.190379 121.833627 
L 316.627635 122.236772 
L 318.045461 121.718684 
L 319.444374 122.112133 
L 320.824874 121.607419 
L 322.187437 122.376256 
L 323.532525 121.870316 
L 324.86058 121.733893 
L 326.172028 121.464652 
L 327.467279 121.619761 
L 328.746728 121.098484 
L 330.010757 121.003206 
L 331.259732 121.369973 
L 332.494008 120.945995 
L 336.112002 120.843474 
L 337.290786 120.020228 
L 338.456468 119.975507 
L 339.609336 120.373109 
L 340.749668 119.689853 
L 341.877735 119.407036 
L 342.993797 119.589843 
L 344.098108 120.188886 
L 345.190911 119.516286 
L 346.272445 119.275325 
L 347.34294 118.505443 
L 348.402618 118.519629 
L 350.490384 118.295588 
L 353.546117 117.109316 
L 354.545225 117.156603 
L 355.534904 116.864789 
L 356.515332 116.83545 
L 357.486678 116.2925 
L 359.402793 116.026393 
L 360.34788 115.945059 
L 361.284526 115.11851 
L 362.212882 114.712228 
L 363.133092 114.446714 
L 364.045298 113.987604 
L 365.846246 113.531603 
L 366.735255 112.846433 
L 367.616791 112.777419 
L 368.490978 112.044992 
L 369.35794 112.140324 
L 370.217793 111.285487 
L 371.070654 111.436161 
L 372.755847 110.02145 
L 373.588397 109.498481 
L 374.41439 109.51795 
L 375.233928 108.479462 
L 376.854039 108.06114 
L 379.238225 106.216269 
L 380.021059 106.209386 
L 380.798094 105.666423 
L 381.569413 104.856877 
L 382.335101 104.543544 
L 383.09524 103.574048 
L 383.849909 103.116868 
L 384.599186 102.46279 
L 385.343148 102.139041 
L 386.815424 101.173584 
L 388.985797 99.23862 
L 389.699387 98.790181 
L 390.408155 98.151831 
L 391.81148 96.691184 
L 393.196275 95.41246 
L 393.881876 94.52925 
L 394.563024 94.090661 
L 395.91219 92.817371 
L 397.24422 91.569502 
L 398.559544 89.894336 
L 399.858576 88.781665 
L 400.502108 87.969798 
L 401.141715 87.362618 
L 401.777445 86.501862 
L 403.037459 85.249346 
L 404.282515 83.750477 
L 406.122816 81.617827 
L 406.729143 80.785653 
L 407.331984 80.229462 
L 409.119993 77.950102 
L 410.295285 76.716636 
L 411.457552 75.215847 
L 412.033891 74.397637 
L 413.177153 73.235829 
L 413.744144 72.602861 
L 414.308087 71.761634 
L 418.713676 67.323828 
L 420.3192 66.085946 
L 420.848959 65.560566 
L 424.484186 63.36776 
L 424.993369 63.318068 
L 426.004378 63.025739 
L 427.997619 62.754892 
L 428.980212 62.895407 
L 429.468077 62.91693 
L 430.437052 63.27669 
L 431.397156 63.70345 
L 431.873932 64.07373 
L 432.34855 64.15437 
L 435.152021 66.119843 
L 436.070101 66.973785 
L 436.526145 67.358711 
L 442.710899 74.864218 
L 443.139019 75.691785 
L 443.990051 76.651036 
L 444.834232 77.967937 
L 445.253788 79.558115 
L 445.671673 79.041536 
L 446.087899 79.8032 
L 446.502479 81.124098 
L 446.915428 80.825957 
L 447.326756 83.011304 
L 447.326756 83.011304 
" clip-path="url(#pd4b70cf059)" style="fill: none; stroke: #1ae4b6; stroke-width: 1.5; stroke-linecap: square"/>
   </g>
   <g id="patch_3">
    <path d="M 61.828125 132.003203 
L 61.828125 10.8 
" style="fill: none; stroke: #000000; stroke-width: 0.8; stroke-linejoin: miter; stroke-linecap: square"/>
   </g>
   <g id="patch_4">
    <path d="M 447.326756 132.003203 
L 447.326756 10.8 
" style="fill: none; stroke: #000000; stroke-width: 0.8; stroke-linejoin: miter; stroke-linecap: square"/>
   </g>
   <g id="patch_5">
    <path d="M 61.828125 132.003203 
L 447.326756 132.003203 
" style="fill: none; stroke: #000000; stroke-width: 0.8; stroke-linejoin: miter; stroke-linecap: square"/>
   </g>
   <g id="patch_6">
    <path d="M 61.828125 10.8 
L 447.326756 10.8 
" style="fill: none; stroke: #000000; stroke-width: 0.8; stroke-linejoin: miter; stroke-linecap: square"/>
   </g>
   <g id="legend_1">
    <g id="line2d_35">
     <path d="M 184.371191 23.898438 
L 194.371191 23.898438 
L 204.371191 23.898438 
" style="fill: none; stroke: #7a0403; stroke-width: 1.5; stroke-linecap: square"/>
    </g>
    <g id="text_6">
     <!-- 49mm -->
     <g transform="translate(212.371191 27.398438)scale(0.1 -0.1)">
      <defs>
       <path id="DejaVuSans-34" d="M 2419 4116 
L 825 1625 
L 2419 1625 
L 2419 4116 
z
M 2253 4666 
L 3047 4666 
L 3047 1625 
L 3713 1625 
L 3713 1100 
L 3047 1100 
L 3047 0 
L 2419 0 
L 2419 1100 
L 313 1100 
L 313 1709 
L 2253 4666 
z
" transform="scale(0.015625)"/>
       <path id="DejaVuSans-39" d="M 703 97 
L 703 672 
Q 941 559 1184 500 
Q 1428 441 1663 441 
Q 2288 441 2617 861 
Q 2947 1281 2994 2138 
Q 2813 1869 2534 1725 
Q 2256 1581 1919 1581 
Q 1219 1581 811 2004 
Q 403 2428 403 3163 
Q 403 3881 828 4315 
Q 1253 4750 1959 4750 
Q 2769 4750 3195 4129 
Q 3622 3509 3622 2328 
Q 3622 1225 3098 567 
Q 2575 -91 1691 -91 
Q 1453 -91 1209 -44 
Q 966 3 703 97 
z
M 1959 2075 
Q 2384 2075 2632 2365 
Q 2881 2656 2881 3163 
Q 2881 3666 2632 3958 
Q 2384 4250 1959 4250 
Q 1534 4250 1286 3958 
Q 1038 3666 1038 3163 
Q 1038 2656 1286 2365 
Q 1534 2075 1959 2075 
z
" transform="scale(0.015625)"/>
       <path id="DejaVuSans-6d" d="M 3328 2828 
Q 3544 3216 3844 3400 
Q 4144 3584 4550 3584 
Q 5097 3584 5394 3201 
Q 5691 2819 5691 2113 
L 5691 0 
L 5113 0 
L 5113 2094 
Q 5113 2597 4934 2840 
Q 4756 3084 4391 3084 
Q 3944 3084 3684 2787 
Q 3425 2491 3425 1978 
L 3425 0 
L 2847 0 
L 2847 2094 
Q 2847 2600 2669 2842 
Q 2491 3084 2119 3084 
Q 1678 3084 1418 2786 
Q 1159 2488 1159 1978 
L 1159 0 
L 581 0 
L 581 3500 
L 1159 3500 
L 1159 2956 
Q 1356 3278 1631 3431 
Q 1906 3584 2284 3584 
Q 2666 3584 2933 3390 
Q 3200 3197 3328 2828 
z
" transform="scale(0.015625)"/>
      </defs>
      <use xlink:href="#DejaVuSans-34"/>
      <use xlink:href="#DejaVuSans-39" x="63.623047"/>
      <use xlink:href="#DejaVuSans-6d" x="127.246094"/>
      <use xlink:href="#DejaVuSans-6d" x="224.658203"/>
     </g>
    </g>
    <g id="line2d_36">
     <path d="M 184.371191 38.576563 
L 194.371191 38.576563 
L 204.371191 38.576563 
" style="fill: none; stroke: #e4450a; stroke-width: 1.5; stroke-linecap: square"/>
    </g>
    <g id="text_7">
     <!-- 59mm -->
     <g transform="translate(212.371191 42.076563)scale(0.1 -0.1)">
      <defs>
       <path id="DejaVuSans-35" d="M 691 4666 
L 3169 4666 
L 3169 4134 
L 1269 4134 
L 1269 2991 
Q 1406 3038 1543 3061 
Q 1681 3084 1819 3084 
Q 2600 3084 3056 2656 
Q 3513 2228 3513 1497 
Q 3513 744 3044 326 
Q 2575 -91 1722 -91 
Q 1428 -91 1123 -41 
Q 819 9 494 109 
L 494 744 
Q 775 591 1075 516 
Q 1375 441 1709 441 
Q 2250 441 2565 725 
Q 2881 1009 2881 1497 
Q 2881 1984 2565 2268 
Q 2250 2553 1709 2553 
Q 1456 2553 1204 2497 
Q 953 2441 691 2322 
L 691 4666 
z
" transform="scale(0.015625)"/>
      </defs>
      <use xlink:href="#DejaVuSans-35"/>
      <use xlink:href="#DejaVuSans-39" x="63.623047"/>
      <use xlink:href="#DejaVuSans-6d" x="127.246094"/>
      <use xlink:href="#DejaVuSans-6d" x="224.658203"/>
     </g>
    </g>
    <g id="line2d_37">
     <path d="M 184.371191 53.254687 
L 194.371191 53.254687 
L 204.371191 53.254687 
" style="fill: none; stroke: #faba39; stroke-width: 1.5; stroke-linecap: square"/>
    </g>
    <g id="text_8">
     <!-- 69mm -->
     <g transform="translate(212.371191 56.754687)scale(0.1 -0.1)">
      <defs>
       <path id="DejaVuSans-36" d="M 2113 2584 
Q 1688 2584 1439 2293 
Q 1191 2003 1191 1497 
Q 1191 994 1439 701 
Q 1688 409 2113 409 
Q 2538 409 2786 701 
Q 3034 994 3034 1497 
Q 3034 2003 2786 2293 
Q 2538 2584 2113 2584 
z
M 3366 4563 
L 3366 3988 
Q 3128 4100 2886 4159 
Q 2644 4219 2406 4219 
Q 1781 4219 1451 3797 
Q 1122 3375 1075 2522 
Q 1259 2794 1537 2939 
Q 1816 3084 2150 3084 
Q 2853 3084 3261 2657 
Q 3669 2231 3669 1497 
Q 3669 778 3244 343 
Q 2819 -91 2113 -91 
Q 1303 -91 875 529 
Q 447 1150 447 2328 
Q 447 3434 972 4092 
Q 1497 4750 2381 4750 
Q 2619 4750 2861 4703 
Q 3103 4656 3366 4563 
z
" transform="scale(0.015625)"/>
      </defs>
      <use xlink:href="#DejaVuSans-36"/>
      <use xlink:href="#DejaVuSans-39" x="63.623047"/>
      <use xlink:href="#DejaVuSans-6d" x="127.246094"/>
      <use xlink:href="#DejaVuSans-6d" x="224.658203"/>
     </g>
    </g>
    <g id="line2d_38">
     <path d="M 264.577441 23.898438 
L 274.577441 23.898438 
L 284.577441 23.898438 
" style="fill: none; stroke: #a1fd3d; stroke-width: 1.5; stroke-linecap: square"/>
    </g>
    <g id="text_9">
     <!-- 79mm -->
     <g transform="translate(292.577441 27.398438)scale(0.1 -0.1)">
      <defs>
       <path id="DejaVuSans-37" d="M 525 4666 
L 3525 4666 
L 3525 4397 
L 1831 0 
L 1172 0 
L 2766 4134 
L 525 4134 
L 525 4666 
z
" transform="scale(0.015625)"/>
      </defs>
      <use xlink:href="#DejaVuSans-37"/>
      <use xlink:href="#DejaVuSans-39" x="63.623047"/>
      <use xlink:href="#DejaVuSans-6d" x="127.246094"/>
      <use xlink:href="#DejaVuSans-6d" x="224.658203"/>
     </g>
    </g>
    <g id="line2d_39">
     <path d="M 264.577441 38.576563 
L 274.577441 38.576563 
L 284.577441 38.576563 
" style="fill: none; stroke: #1ae4b6; stroke-width: 1.5; stroke-linecap: square"/>
    </g>
    <g id="text_10">
     <!-- 89mm -->
     <g transform="translate(292.577441 42.076563)scale(0.1 -0.1)">
      <defs>
       <path id="DejaVuSans-38" d="M 2034 2216 
Q 1584 2216 1326 1975 
Q 1069 1734 1069 1313 
Q 1069 891 1326 650 
Q 1584 409 2034 409 
Q 2484 409 2743 651 
Q 3003 894 3003 1313 
Q 3003 1734 2745 1975 
Q 2488 2216 2034 2216 
z
M 1403 2484 
Q 997 2584 770 2862 
Q 544 3141 544 3541 
Q 544 4100 942 4425 
Q 1341 4750 2034 4750 
Q 2731 4750 3128 4425 
Q 3525 4100 3525 3541 
Q 3525 3141 3298 2862 
Q 3072 2584 2669 2484 
Q 3125 2378 3379 2068 
Q 3634 1759 3634 1313 
Q 3634 634 3220 271 
Q 2806 -91 2034 -91 
Q 1263 -91 848 271 
Q 434 634 434 1313 
Q 434 1759 690 2068 
Q 947 2378 1403 2484 
z
M 1172 3481 
Q 1172 3119 1398 2916 
Q 1625 2713 2034 2713 
Q 2441 2713 2670 2916 
Q 2900 3119 2900 3481 
Q 2900 3844 2670 4047 
Q 2441 4250 2034 4250 
Q 1625 4250 1398 4047 
Q 1172 3844 1172 3481 
z
" transform="scale(0.015625)"/>
      </defs>
      <use xlink:href="#DejaVuSans-38"/>
      <use xlink:href="#DejaVuSans-39" x="63.623047"/>
      <use xlink:href="#DejaVuSans-6d" x="127.246094"/>
      <use xlink:href="#DejaVuSans-6d" x="224.658203"/>
     </g>
    </g>
   </g>
  </g>
  <g id="axes_2">
   <g id="patch_7">
    <path d="M 61.828125 304.44375 
L 220.006444 304.44375 
L 220.006444 183.240547 
L 61.828125 183.240547 
z
" style="fill: #ffffff"/>
   </g>
   <g id="matplotlib.axis_3">
    <g id="xtick_15">
     <g id="line2d_40">
      <path d="M 72.61301 304.44375 
L 72.61301 183.240547 
" clip-path="url(#pf67baba9e1)" style="fill: none; stroke-dasharray: 2.96,1.28; stroke-dashoffset: 0; stroke: #b0b0b0; stroke-opacity: 0.2; stroke-width: 0.8"/>
     </g>
     <g id="line2d_41">
      <g>
       <use xlink:href="#m7a4ef30c06" x="72.61301" y="304.44375" style="stroke: #000000; stroke-width: 0.8"/>
      </g>
     </g>
     <g id="text_11">
      <!-- 50 -->
      <g transform="translate(66.25051 319.042187)scale(0.1 -0.1)">
       <use xlink:href="#DejaVuSans-35"/>
       <use xlink:href="#DejaVuSans-30" x="63.623047"/>
      </g>
     </g>
    </g>
    <g id="xtick_16">
     <g id="line2d_42">
      <path d="M 108.562628 304.44375 
L 108.562628 183.240547 
" clip-path="url(#pf67baba9e1)" style="fill: none; stroke-dasharray: 2.96,1.28; stroke-dashoffset: 0; stroke: #b0b0b0; stroke-opacity: 0.2; stroke-width: 0.8"/>
     </g>
     <g id="line2d_43">
      <g>
       <use xlink:href="#m7a4ef30c06" x="108.562628" y="304.44375" style="stroke: #000000; stroke-width: 0.8"/>
      </g>
     </g>
     <g id="text_12">
      <!-- 60 -->
      <g transform="translate(102.200128 319.042187)scale(0.1 -0.1)">
       <use xlink:href="#DejaVuSans-36"/>
       <use xlink:href="#DejaVuSans-30" x="63.623047"/>
      </g>
     </g>
    </g>
    <g id="xtick_17">
     <g id="line2d_44">
      <path d="M 144.512246 304.44375 
L 144.512246 183.240547 
" clip-path="url(#pf67baba9e1)" style="fill: none; stroke-dasharray: 2.96,1.28; stroke-dashoffset: 0; stroke: #b0b0b0; stroke-opacity: 0.2; stroke-width: 0.8"/>
     </g>
     <g id="line2d_45">
      <g>
       <use xlink:href="#m7a4ef30c06" x="144.512246" y="304.44375" style="stroke: #000000; stroke-width: 0.8"/>
      </g>
     </g>
     <g id="text_13">
      <!-- 70 -->
      <g transform="translate(138.149746 319.042187)scale(0.1 -0.1)">
       <use xlink:href="#DejaVuSans-37"/>
       <use xlink:href="#DejaVuSans-30" x="63.623047"/>
      </g>
     </g>
    </g>
    <g id="xtick_18">
     <g id="line2d_46">
      <path d="M 180.461864 304.44375 
L 180.461864 183.240547 
" clip-path="url(#pf67baba9e1)" style="fill: none; stroke-dasharray: 2.96,1.28; stroke-dashoffset: 0; stroke: #b0b0b0; stroke-opacity: 0.2; stroke-width: 0.8"/>
     </g>
     <g id="line2d_47">
      <g>
       <use xlink:href="#m7a4ef30c06" x="180.461864" y="304.44375" style="stroke: #000000; stroke-width: 0.8"/>
      </g>
     </g>
     <g id="text_14">
      <!-- 80 -->
      <g transform="translate(174.099364 319.042187)scale(0.1 -0.1)">
       <use xlink:href="#DejaVuSans-38"/>
       <use xlink:href="#DejaVuSans-30" x="63.623047"/>
      </g>
     </g>
    </g>
    <g id="xtick_19">
     <g id="line2d_48">
      <path d="M 216.411482 304.44375 
L 216.411482 183.240547 
" clip-path="url(#pf67baba9e1)" style="fill: none; stroke-dasharray: 2.96,1.28; stroke-dashoffset: 0; stroke: #b0b0b0; stroke-opacity: 0.2; stroke-width: 0.8"/>
     </g>
     <g id="line2d_49">
      <g>
       <use xlink:href="#m7a4ef30c06" x="216.411482" y="304.44375" style="stroke: #000000; stroke-width: 0.8"/>
      </g>
     </g>
     <g id="text_15">
      <!-- 90 -->
      <g transform="translate(210.048982 319.042187)scale(0.1 -0.1)">
       <use xlink:href="#DejaVuSans-39"/>
       <use xlink:href="#DejaVuSans-30" x="63.623047"/>
      </g>
     </g>
    </g>
    <g id="text_16">
     <!-- Distance from tip (mm) -->
     <g transform="translate(82.489159 332.720312)scale(0.1 -0.1)">
      <defs>
       <path id="DejaVuSans-44" d="M 1259 4147 
L 1259 519 
L 2022 519 
Q 2988 519 3436 956 
Q 3884 1394 3884 2338 
Q 3884 3275 3436 3711 
Q 2988 4147 2022 4147 
L 1259 4147 
z
M 628 4666 
L 1925 4666 
Q 3281 4666 3915 4102 
Q 4550 3538 4550 2338 
Q 4550 1131 3912 565 
Q 3275 0 1925 0 
L 628 0 
L 628 4666 
z
" transform="scale(0.015625)"/>
       <path id="DejaVuSans-69" d="M 603 3500 
L 1178 3500 
L 1178 0 
L 603 0 
L 603 3500 
z
M 603 4863 
L 1178 4863 
L 1178 4134 
L 603 4134 
L 603 4863 
z
" transform="scale(0.015625)"/>
       <path id="DejaVuSans-73" d="M 2834 3397 
L 2834 2853 
Q 2591 2978 2328 3040 
Q 2066 3103 1784 3103 
Q 1356 3103 1142 2972 
Q 928 2841 928 2578 
Q 928 2378 1081 2264 
Q 1234 2150 1697 2047 
L 1894 2003 
Q 2506 1872 2764 1633 
Q 3022 1394 3022 966 
Q 3022 478 2636 193 
Q 2250 -91 1575 -91 
Q 1294 -91 989 -36 
Q 684 19 347 128 
L 347 722 
Q 666 556 975 473 
Q 1284 391 1588 391 
Q 1994 391 2212 530 
Q 2431 669 2431 922 
Q 2431 1156 2273 1281 
Q 2116 1406 1581 1522 
L 1381 1569 
Q 847 1681 609 1914 
Q 372 2147 372 2553 
Q 372 3047 722 3315 
Q 1072 3584 1716 3584 
Q 2034 3584 2315 3537 
Q 2597 3491 2834 3397 
z
" transform="scale(0.015625)"/>
       <path id="DejaVuSans-74" d="M 1172 4494 
L 1172 3500 
L 2356 3500 
L 2356 3053 
L 1172 3053 
L 1172 1153 
Q 1172 725 1289 603 
Q 1406 481 1766 481 
L 2356 481 
L 2356 0 
L 1766 0 
Q 1100 0 847 248 
Q 594 497 594 1153 
L 594 3053 
L 172 3053 
L 172 3500 
L 594 3500 
L 594 4494 
L 1172 4494 
z
" transform="scale(0.015625)"/>
       <path id="DejaVuSans-6e" d="M 3513 2113 
L 3513 0 
L 2938 0 
L 2938 2094 
Q 2938 2591 2744 2837 
Q 2550 3084 2163 3084 
Q 1697 3084 1428 2787 
Q 1159 2491 1159 1978 
L 1159 0 
L 581 0 
L 581 3500 
L 1159 3500 
L 1159 2956 
Q 1366 3272 1645 3428 
Q 1925 3584 2291 3584 
Q 2894 3584 3203 3211 
Q 3513 2838 3513 2113 
z
" transform="scale(0.015625)"/>
       <path id="DejaVuSans-63" d="M 3122 3366 
L 3122 2828 
Q 2878 2963 2633 3030 
Q 2388 3097 2138 3097 
Q 1578 3097 1268 2742 
Q 959 2388 959 1747 
Q 959 1106 1268 751 
Q 1578 397 2138 397 
Q 2388 397 2633 464 
Q 2878 531 3122 666 
L 3122 134 
Q 2881 22 2623 -34 
Q 2366 -91 2075 -91 
Q 1284 -91 818 406 
Q 353 903 353 1747 
Q 353 2603 823 3093 
Q 1294 3584 2113 3584 
Q 2378 3584 2631 3529 
Q 2884 3475 3122 3366 
z
" transform="scale(0.015625)"/>
       <path id="DejaVuSans-65" d="M 3597 1894 
L 3597 1613 
L 953 1613 
Q 991 1019 1311 708 
Q 1631 397 2203 397 
Q 2534 397 2845 478 
Q 3156 559 3463 722 
L 3463 178 
Q 3153 47 2828 -22 
Q 2503 -91 2169 -91 
Q 1331 -91 842 396 
Q 353 884 353 1716 
Q 353 2575 817 3079 
Q 1281 3584 2069 3584 
Q 2775 3584 3186 3129 
Q 3597 2675 3597 1894 
z
M 3022 2063 
Q 3016 2534 2758 2815 
Q 2500 3097 2075 3097 
Q 1594 3097 1305 2825 
Q 1016 2553 972 2059 
L 3022 2063 
z
" transform="scale(0.015625)"/>
       <path id="DejaVuSans-20" transform="scale(0.015625)"/>
       <path id="DejaVuSans-66" d="M 2375 4863 
L 2375 4384 
L 1825 4384 
Q 1516 4384 1395 4259 
Q 1275 4134 1275 3809 
L 1275 3500 
L 2222 3500 
L 2222 3053 
L 1275 3053 
L 1275 0 
L 697 0 
L 697 3053 
L 147 3053 
L 147 3500 
L 697 3500 
L 697 3744 
Q 697 4328 969 4595 
Q 1241 4863 1831 4863 
L 2375 4863 
z
" transform="scale(0.015625)"/>
       <path id="DejaVuSans-72" d="M 2631 2963 
Q 2534 3019 2420 3045 
Q 2306 3072 2169 3072 
Q 1681 3072 1420 2755 
Q 1159 2438 1159 1844 
L 1159 0 
L 581 0 
L 581 3500 
L 1159 3500 
L 1159 2956 
Q 1341 3275 1631 3429 
Q 1922 3584 2338 3584 
Q 2397 3584 2469 3576 
Q 2541 3569 2628 3553 
L 2631 2963 
z
" transform="scale(0.015625)"/>
       <path id="DejaVuSans-6f" d="M 1959 3097 
Q 1497 3097 1228 2736 
Q 959 2375 959 1747 
Q 959 1119 1226 758 
Q 1494 397 1959 397 
Q 2419 397 2687 759 
Q 2956 1122 2956 1747 
Q 2956 2369 2687 2733 
Q 2419 3097 1959 3097 
z
M 1959 3584 
Q 2709 3584 3137 3096 
Q 3566 2609 3566 1747 
Q 3566 888 3137 398 
Q 2709 -91 1959 -91 
Q 1206 -91 779 398 
Q 353 888 353 1747 
Q 353 2609 779 3096 
Q 1206 3584 1959 3584 
z
" transform="scale(0.015625)"/>
       <path id="DejaVuSans-70" d="M 1159 525 
L 1159 -1331 
L 581 -1331 
L 581 3500 
L 1159 3500 
L 1159 2969 
Q 1341 3281 1617 3432 
Q 1894 3584 2278 3584 
Q 2916 3584 3314 3078 
Q 3713 2572 3713 1747 
Q 3713 922 3314 415 
Q 2916 -91 2278 -91 
Q 1894 -91 1617 61 
Q 1341 213 1159 525 
z
M 3116 1747 
Q 3116 2381 2855 2742 
Q 2594 3103 2138 3103 
Q 1681 3103 1420 2742 
Q 1159 2381 1159 1747 
Q 1159 1113 1420 752 
Q 1681 391 2138 391 
Q 2594 391 2855 752 
Q 3116 1113 3116 1747 
z
" transform="scale(0.015625)"/>
      </defs>
      <use xlink:href="#DejaVuSans-44"/>
      <use xlink:href="#DejaVuSans-69" x="77.001953"/>
      <use xlink:href="#DejaVuSans-73" x="104.785156"/>
      <use xlink:href="#DejaVuSans-74" x="156.884766"/>
      <use xlink:href="#DejaVuSans-61" x="196.09375"/>
      <use xlink:href="#DejaVuSans-6e" x="257.373047"/>
      <use xlink:href="#DejaVuSans-63" x="320.751953"/>
      <use xlink:href="#DejaVuSans-65" x="375.732422"/>
      <use xlink:href="#DejaVuSans-20" x="437.255859"/>
      <use xlink:href="#DejaVuSans-66" x="469.042969"/>
      <use xlink:href="#DejaVuSans-72" x="504.248047"/>
      <use xlink:href="#DejaVuSans-6f" x="543.111328"/>
      <use xlink:href="#DejaVuSans-6d" x="604.292969"/>
      <use xlink:href="#DejaVuSans-20" x="701.705078"/>
      <use xlink:href="#DejaVuSans-74" x="733.492188"/>
      <use xlink:href="#DejaVuSans-69" x="772.701172"/>
      <use xlink:href="#DejaVuSans-70" x="800.484375"/>
      <use xlink:href="#DejaVuSans-20" x="863.960938"/>
      <use xlink:href="#DejaVuSans-28" x="895.748047"/>
      <use xlink:href="#DejaVuSans-6d" x="934.761719"/>
      <use xlink:href="#DejaVuSans-6d" x="1032.173828"/>
      <use xlink:href="#DejaVuSans-29" x="1129.585938"/>
     </g>
    </g>
   </g>
   <g id="matplotlib.axis_4">
    <g id="ytick_13">
     <g id="line2d_50">
      <path d="M 61.828125 304.44375 
L 220.006444 304.44375 
" clip-path="url(#pf67baba9e1)" style="fill: none; stroke-dasharray: 2.96,1.28; stroke-dashoffset: 0; stroke: #b0b0b0; stroke-opacity: 0.2; stroke-width: 0.8"/>
     </g>
     <g id="line2d_51">
      <g>
       <use xlink:href="#m51d3d82c28" x="61.828125" y="304.44375" style="stroke: #000000; stroke-width: 0.8"/>
      </g>
     </g>
     <g id="text_17">
      <!-- 1.980 -->
      <g transform="translate(26.2 308.242969)scale(0.1 -0.1)">
       <use xlink:href="#DejaVuSans-31"/>
       <use xlink:href="#DejaVuSans-2e" x="63.623047"/>
       <use xlink:href="#DejaVuSans-39" x="95.410156"/>
       <use xlink:href="#DejaVuSans-38" x="159.033203"/>
       <use xlink:href="#DejaVuSans-30" x="222.65625"/>
      </g>
     </g>
    </g>
    <g id="ytick_14">
     <g id="line2d_52">
      <path d="M 61.828125 280.203109 
L 220.006444 280.203109 
" clip-path="url(#pf67baba9e1)" style="fill: none; stroke-dasharray: 2.96,1.28; stroke-dashoffset: 0; stroke: #b0b0b0; stroke-opacity: 0.2; stroke-width: 0.8"/>
     </g>
     <g id="line2d_53">
      <g>
       <use xlink:href="#m51d3d82c28" x="61.828125" y="280.203109" style="stroke: #000000; stroke-width: 0.8"/>
      </g>
     </g>
     <g id="text_18">
      <!-- 1.982 -->
      <g transform="translate(26.2 284.002328)scale(0.1 -0.1)">
       <use xlink:href="#DejaVuSans-31"/>
       <use xlink:href="#DejaVuSans-2e" x="63.623047"/>
       <use xlink:href="#DejaVuSans-39" x="95.410156"/>
       <use xlink:href="#DejaVuSans-38" x="159.033203"/>
       <use xlink:href="#DejaVuSans-32" x="222.65625"/>
      </g>
     </g>
    </g>
    <g id="ytick_15">
     <g id="line2d_54">
      <path d="M 61.828125 255.962469 
L 220.006444 255.962469 
" clip-path="url(#pf67baba9e1)" style="fill: none; stroke-dasharray: 2.96,1.28; stroke-dashoffset: 0; stroke: #b0b0b0; stroke-opacity: 0.2; stroke-width: 0.8"/>
     </g>
     <g id="line2d_55">
      <g>
       <use xlink:href="#m51d3d82c28" x="61.828125" y="255.962469" style="stroke: #000000; stroke-width: 0.8"/>
      </g>
     </g>
     <g id="text_19">
      <!-- 1.984 -->
      <g transform="translate(26.2 259.761688)scale(0.1 -0.1)">
       <use xlink:href="#DejaVuSans-31"/>
       <use xlink:href="#DejaVuSans-2e" x="63.623047"/>
       <use xlink:href="#DejaVuSans-39" x="95.410156"/>
       <use xlink:href="#DejaVuSans-38" x="159.033203"/>
       <use xlink:href="#DejaVuSans-34" x="222.65625"/>
      </g>
     </g>
    </g>
    <g id="ytick_16">
     <g id="line2d_56">
      <path d="M 61.828125 231.721828 
L 220.006444 231.721828 
" clip-path="url(#pf67baba9e1)" style="fill: none; stroke-dasharray: 2.96,1.28; stroke-dashoffset: 0; stroke: #b0b0b0; stroke-opacity: 0.2; stroke-width: 0.8"/>
     </g>
     <g id="line2d_57">
      <g>
       <use xlink:href="#m51d3d82c28" x="61.828125" y="231.721828" style="stroke: #000000; stroke-width: 0.8"/>
      </g>
     </g>
     <g id="text_20">
      <!-- 1.986 -->
      <g transform="translate(26.2 235.521047)scale(0.1 -0.1)">
       <use xlink:href="#DejaVuSans-31"/>
       <use xlink:href="#DejaVuSans-2e" x="63.623047"/>
       <use xlink:href="#DejaVuSans-39" x="95.410156"/>
       <use xlink:href="#DejaVuSans-38" x="159.033203"/>
       <use xlink:href="#DejaVuSans-36" x="222.65625"/>
      </g>
     </g>
    </g>
    <g id="ytick_17">
     <g id="line2d_58">
      <path d="M 61.828125 207.481188 
L 220.006444 207.481188 
" clip-path="url(#pf67baba9e1)" style="fill: none; stroke-dasharray: 2.96,1.28; stroke-dashoffset: 0; stroke: #b0b0b0; stroke-opacity: 0.2; stroke-width: 0.8"/>
     </g>
     <g id="line2d_59">
      <g>
       <use xlink:href="#m51d3d82c28" x="61.828125" y="207.481188" style="stroke: #000000; stroke-width: 0.8"/>
      </g>
     </g>
     <g id="text_21">
      <!-- 1.988 -->
      <g transform="translate(26.2 211.280406)scale(0.1 -0.1)">
       <use xlink:href="#DejaVuSans-31"/>
       <use xlink:href="#DejaVuSans-2e" x="63.623047"/>
       <use xlink:href="#DejaVuSans-39" x="95.410156"/>
       <use xlink:href="#DejaVuSans-38" x="159.033203"/>
       <use xlink:href="#DejaVuSans-38" x="222.65625"/>
      </g>
     </g>
    </g>
    <g id="ytick_18">
     <g id="line2d_60">
      <path d="M 61.828125 183.240547 
L 220.006444 183.240547 
" clip-path="url(#pf67baba9e1)" style="fill: none; stroke-dasharray: 2.96,1.28; stroke-dashoffset: 0; stroke: #b0b0b0; stroke-opacity: 0.2; stroke-width: 0.8"/>
     </g>
     <g id="line2d_61">
      <g>
       <use xlink:href="#m51d3d82c28" x="61.828125" y="183.240547" style="stroke: #000000; stroke-width: 0.8"/>
      </g>
     </g>
     <g id="text_22">
      <!-- 1.990 -->
      <g transform="translate(26.2 187.039766)scale(0.1 -0.1)">
       <use xlink:href="#DejaVuSans-31"/>
       <use xlink:href="#DejaVuSans-2e" x="63.623047"/>
       <use xlink:href="#DejaVuSans-39" x="95.410156"/>
       <use xlink:href="#DejaVuSans-39" x="159.033203"/>
       <use xlink:href="#DejaVuSans-30" x="222.65625"/>
      </g>
     </g>
    </g>
    <g id="text_23">
     <!-- $q_1~(\mathrm{\AA^{-1})}$ -->
     <g transform="translate(20.1 263.692148)rotate(-90)scale(0.1 -0.1)">
      <use xlink:href="#DejaVuSans-Oblique-71" transform="translate(0 0.171875)"/>
      <use xlink:href="#DejaVuSans-31" transform="translate(63.476562 -16.234375)scale(0.7)"/>
      <use xlink:href="#DejaVuSans-28" transform="translate(143.217449 0.171875)"/>
      <use xlink:href="#DejaVuSans-c5" transform="translate(182.231121 0.171875)"/>
      <use xlink:href="#DejaVuSans-2212" transform="translate(251.596355 38.453125)scale(0.7)"/>
      <use xlink:href="#DejaVuSans-31" transform="translate(310.248699 38.453125)scale(0.7)"/>
      <use xlink:href="#DejaVuSans-29" transform="translate(357.519207 0.171875)"/>
     </g>
    </g>
   </g>
   <g id="line2d_62">
    <defs>
     <path id="mbef0d1aedb" d="M 0 3 
C 0.795609 3 1.55874 2.683901 2.12132 2.12132 
C 2.683901 1.55874 3 0.795609 3 0 
C 3 -0.795609 2.683901 -1.55874 2.12132 -2.12132 
C 1.55874 -2.683901 0.795609 -3 0 -3 
C -0.795609 -3 -1.55874 -2.683901 -2.12132 -2.12132 
C -2.683901 -1.55874 -3 -0.795609 -3 0 
C -3 0.795609 -2.683901 1.55874 -2.12132 2.12132 
C -1.55874 2.683901 -0.795609 3 0 3 
z
" style="stroke: #1f77b4"/>
    </defs>
    <g clip-path="url(#pf67baba9e1)">
     <use xlink:href="#mbef0d1aedb" x="69.018049" y="235.556331" style="fill: #1f77b4; stroke: #1f77b4"/>
     <use xlink:href="#mbef0d1aedb" x="104.967666" y="256.412322" style="fill: #1f77b4; stroke: #1f77b4"/>
     <use xlink:href="#mbef0d1aedb" x="140.917284" y="250.995218" style="fill: #1f77b4; stroke: #1f77b4"/>
     <use xlink:href="#mbef0d1aedb" x="176.866902" y="262.640777" style="fill: #1f77b4; stroke: #1f77b4"/>
     <use xlink:href="#mbef0d1aedb" x="212.81652" y="246.273842" style="fill: #1f77b4; stroke: #1f77b4"/>
    </g>
   </g>
   <g id="patch_8">
    <path d="M 61.828125 304.44375 
L 61.828125 183.240547 
" style="fill: none; stroke: #000000; stroke-width: 0.8; stroke-linejoin: miter; stroke-linecap: square"/>
   </g>
   <g id="patch_9">
    <path d="M 220.006444 304.44375 
L 220.006444 183.240547 
" style="fill: none; stroke: #000000; stroke-width: 0.8; stroke-linejoin: miter; stroke-linecap: square"/>
   </g>
   <g id="patch_10">
    <path d="M 61.828125 304.44375 
L 220.006444 304.44375 
" style="fill: none; stroke: #000000; stroke-width: 0.8; stroke-linejoin: miter; stroke-linecap: square"/>
   </g>
   <g id="patch_11">
    <path d="M 61.828125 183.240547 
L 220.006444 183.240547 
" style="fill: none; stroke: #000000; stroke-width: 0.8; stroke-linejoin: miter; stroke-linecap: square"/>
   </g>
  </g>
  <g id="axes_3">
   <g id="patch_12">
    <path d="M 289.148438 304.44375 
L 447.326756 304.44375 
L 447.326756 183.240547 
L 289.148438 183.240547 
z
" style="fill: #ffffff"/>
   </g>
   <g id="matplotlib.axis_5">
    <g id="xtick_20">
     <g id="line2d_63">
      <path d="M 299.933323 304.44375 
L 299.933323 183.240547 
" clip-path="url(#pb570aaffcc)" style="fill: none; stroke-dasharray: 2.96,1.28; stroke-dashoffset: 0; stroke: #b0b0b0; stroke-opacity: 0.2; stroke-width: 0.8"/>
     </g>
     <g id="line2d_64">
      <g>
       <use xlink:href="#m7a4ef30c06" x="299.933323" y="304.44375" style="stroke: #000000; stroke-width: 0.8"/>
      </g>
     </g>
     <g id="text_24">
      <!-- 50 -->
      <g transform="translate(293.570823 319.042187)scale(0.1 -0.1)">
       <use xlink:href="#DejaVuSans-35"/>
       <use xlink:href="#DejaVuSans-30" x="63.623047"/>
      </g>
     </g>
    </g>
    <g id="xtick_21">
     <g id="line2d_65">
      <path d="M 335.882941 304.44375 
L 335.882941 183.240547 
" clip-path="url(#pb570aaffcc)" style="fill: none; stroke-dasharray: 2.96,1.28; stroke-dashoffset: 0; stroke: #b0b0b0; stroke-opacity: 0.2; stroke-width: 0.8"/>
     </g>
     <g id="line2d_66">
      <g>
       <use xlink:href="#m7a4ef30c06" x="335.882941" y="304.44375" style="stroke: #000000; stroke-width: 0.8"/>
      </g>
     </g>
     <g id="text_25">
      <!-- 60 -->
      <g transform="translate(329.520441 319.042187)scale(0.1 -0.1)">
       <use xlink:href="#DejaVuSans-36"/>
       <use xlink:href="#DejaVuSans-30" x="63.623047"/>
      </g>
     </g>
    </g>
    <g id="xtick_22">
     <g id="line2d_67">
      <path d="M 371.832559 304.44375 
L 371.832559 183.240547 
" clip-path="url(#pb570aaffcc)" style="fill: none; stroke-dasharray: 2.96,1.28; stroke-dashoffset: 0; stroke: #b0b0b0; stroke-opacity: 0.2; stroke-width: 0.8"/>
     </g>
     <g id="line2d_68">
      <g>
       <use xlink:href="#m7a4ef30c06" x="371.832559" y="304.44375" style="stroke: #000000; stroke-width: 0.8"/>
      </g>
     </g>
     <g id="text_26">
      <!-- 70 -->
      <g transform="translate(365.470059 319.042187)scale(0.1 -0.1)">
       <use xlink:href="#DejaVuSans-37"/>
       <use xlink:href="#DejaVuSans-30" x="63.623047"/>
      </g>
     </g>
    </g>
    <g id="xtick_23">
     <g id="line2d_69">
      <path d="M 407.782177 304.44375 
L 407.782177 183.240547 
" clip-path="url(#pb570aaffcc)" style="fill: none; stroke-dasharray: 2.96,1.28; stroke-dashoffset: 0; stroke: #b0b0b0; stroke-opacity: 0.2; stroke-width: 0.8"/>
     </g>
     <g id="line2d_70">
      <g>
       <use xlink:href="#m7a4ef30c06" x="407.782177" y="304.44375" style="stroke: #000000; stroke-width: 0.8"/>
      </g>
     </g>
     <g id="text_27">
      <!-- 80 -->
      <g transform="translate(401.419677 319.042187)scale(0.1 -0.1)">
       <use xlink:href="#DejaVuSans-38"/>
       <use xlink:href="#DejaVuSans-30" x="63.623047"/>
      </g>
     </g>
    </g>
    <g id="xtick_24">
     <g id="line2d_71">
      <path d="M 443.731794 304.44375 
L 443.731794 183.240547 
" clip-path="url(#pb570aaffcc)" style="fill: none; stroke-dasharray: 2.96,1.28; stroke-dashoffset: 0; stroke: #b0b0b0; stroke-opacity: 0.2; stroke-width: 0.8"/>
     </g>
     <g id="line2d_72">
      <g>
       <use xlink:href="#m7a4ef30c06" x="443.731794" y="304.44375" style="stroke: #000000; stroke-width: 0.8"/>
      </g>
     </g>
     <g id="text_28">
      <!-- 90 -->
      <g transform="translate(437.369294 319.042187)scale(0.1 -0.1)">
       <use xlink:href="#DejaVuSans-39"/>
       <use xlink:href="#DejaVuSans-30" x="63.623047"/>
      </g>
     </g>
    </g>
    <g id="text_29">
     <!-- Distance from tip (mm) -->
     <g transform="translate(309.809472 332.720312)scale(0.1 -0.1)">
      <use xlink:href="#DejaVuSans-44"/>
      <use xlink:href="#DejaVuSans-69" x="77.001953"/>
      <use xlink:href="#DejaVuSans-73" x="104.785156"/>
      <use xlink:href="#DejaVuSans-74" x="156.884766"/>
      <use xlink:href="#DejaVuSans-61" x="196.09375"/>
      <use xlink:href="#DejaVuSans-6e" x="257.373047"/>
      <use xlink:href="#DejaVuSans-63" x="320.751953"/>
      <use xlink:href="#DejaVuSans-65" x="375.732422"/>
      <use xlink:href="#DejaVuSans-20" x="437.255859"/>
      <use xlink:href="#DejaVuSans-66" x="469.042969"/>
      <use xlink:href="#DejaVuSans-72" x="504.248047"/>
      <use xlink:href="#DejaVuSans-6f" x="543.111328"/>
      <use xlink:href="#DejaVuSans-6d" x="604.292969"/>
      <use xlink:href="#DejaVuSans-20" x="701.705078"/>
      <use xlink:href="#DejaVuSans-74" x="733.492188"/>
      <use xlink:href="#DejaVuSans-69" x="772.701172"/>
      <use xlink:href="#DejaVuSans-70" x="800.484375"/>
      <use xlink:href="#DejaVuSans-20" x="863.960938"/>
      <use xlink:href="#DejaVuSans-28" x="895.748047"/>
      <use xlink:href="#DejaVuSans-6d" x="934.761719"/>
      <use xlink:href="#DejaVuSans-6d" x="1032.173828"/>
      <use xlink:href="#DejaVuSans-29" x="1129.585938"/>
     </g>
    </g>
   </g>
   <g id="matplotlib.axis_6">
    <g id="ytick_19">
     <g id="line2d_73">
      <path d="M 289.148438 286.158555 
L 447.326756 286.158555 
" clip-path="url(#pb570aaffcc)" style="fill: none; stroke-dasharray: 2.96,1.28; stroke-dashoffset: 0; stroke: #b0b0b0; stroke-opacity: 0.2; stroke-width: 0.8"/>
     </g>
     <g id="line2d_74">
      <g>
       <use xlink:href="#m51d3d82c28" x="289.148438" y="286.158555" style="stroke: #000000; stroke-width: 0.8"/>
      </g>
     </g>
     <g id="text_30">
      <!-- 0.0045 -->
      <g transform="translate(247.157813 289.957774)scale(0.1 -0.1)">
       <use xlink:href="#DejaVuSans-30"/>
       <use xlink:href="#DejaVuSans-2e" x="63.623047"/>
       <use xlink:href="#DejaVuSans-30" x="95.410156"/>
       <use xlink:href="#DejaVuSans-30" x="159.033203"/>
       <use xlink:href="#DejaVuSans-34" x="222.65625"/>
       <use xlink:href="#DejaVuSans-35" x="286.279297"/>
      </g>
     </g>
    </g>
    <g id="ytick_20">
     <g id="line2d_75">
      <path d="M 289.148438 264.718062 
L 447.326756 264.718062 
" clip-path="url(#pb570aaffcc)" style="fill: none; stroke-dasharray: 2.96,1.28; stroke-dashoffset: 0; stroke: #b0b0b0; stroke-opacity: 0.2; stroke-width: 0.8"/>
     </g>
     <g id="line2d_76">
      <g>
       <use xlink:href="#m51d3d82c28" x="289.148438" y="264.718062" style="stroke: #000000; stroke-width: 0.8"/>
      </g>
     </g>
     <g id="text_31">
      <!-- 0.0050 -->
      <g transform="translate(247.157813 268.517281)scale(0.1 -0.1)">
       <use xlink:href="#DejaVuSans-30"/>
       <use xlink:href="#DejaVuSans-2e" x="63.623047"/>
       <use xlink:href="#DejaVuSans-30" x="95.410156"/>
       <use xlink:href="#DejaVuSans-30" x="159.033203"/>
       <use xlink:href="#DejaVuSans-35" x="222.65625"/>
       <use xlink:href="#DejaVuSans-30" x="286.279297"/>
      </g>
     </g>
    </g>
    <g id="ytick_21">
     <g id="line2d_77">
      <path d="M 289.148438 243.277569 
L 447.326756 243.277569 
" clip-path="url(#pb570aaffcc)" style="fill: none; stroke-dasharray: 2.96,1.28; stroke-dashoffset: 0; stroke: #b0b0b0; stroke-opacity: 0.2; stroke-width: 0.8"/>
     </g>
     <g id="line2d_78">
      <g>
       <use xlink:href="#m51d3d82c28" x="289.148438" y="243.277569" style="stroke: #000000; stroke-width: 0.8"/>
      </g>
     </g>
     <g id="text_32">
      <!-- 0.0055 -->
      <g transform="translate(247.157813 247.076788)scale(0.1 -0.1)">
       <use xlink:href="#DejaVuSans-30"/>
       <use xlink:href="#DejaVuSans-2e" x="63.623047"/>
       <use xlink:href="#DejaVuSans-30" x="95.410156"/>
       <use xlink:href="#DejaVuSans-30" x="159.033203"/>
       <use xlink:href="#DejaVuSans-35" x="222.65625"/>
       <use xlink:href="#DejaVuSans-35" x="286.279297"/>
      </g>
     </g>
    </g>
    <g id="ytick_22">
     <g id="line2d_79">
      <path d="M 289.148438 221.837076 
L 447.326756 221.837076 
" clip-path="url(#pb570aaffcc)" style="fill: none; stroke-dasharray: 2.96,1.28; stroke-dashoffset: 0; stroke: #b0b0b0; stroke-opacity: 0.2; stroke-width: 0.8"/>
     </g>
     <g id="line2d_80">
      <g>
       <use xlink:href="#m51d3d82c28" x="289.148438" y="221.837076" style="stroke: #000000; stroke-width: 0.8"/>
      </g>
     </g>
     <g id="text_33">
      <!-- 0.0060 -->
      <g transform="translate(247.157813 225.636295)scale(0.1 -0.1)">
       <use xlink:href="#DejaVuSans-30"/>
       <use xlink:href="#DejaVuSans-2e" x="63.623047"/>
       <use xlink:href="#DejaVuSans-30" x="95.410156"/>
       <use xlink:href="#DejaVuSans-30" x="159.033203"/>
       <use xlink:href="#DejaVuSans-36" x="222.65625"/>
       <use xlink:href="#DejaVuSans-30" x="286.279297"/>
      </g>
     </g>
    </g>
    <g id="ytick_23">
     <g id="line2d_81">
      <path d="M 289.148438 200.396583 
L 447.326756 200.396583 
" clip-path="url(#pb570aaffcc)" style="fill: none; stroke-dasharray: 2.96,1.28; stroke-dashoffset: 0; stroke: #b0b0b0; stroke-opacity: 0.2; stroke-width: 0.8"/>
     </g>
     <g id="line2d_82">
      <g>
       <use xlink:href="#m51d3d82c28" x="289.148438" y="200.396583" style="stroke: #000000; stroke-width: 0.8"/>
      </g>
     </g>
     <g id="text_34">
      <!-- 0.0065 -->
      <g transform="translate(247.157813 204.195802)scale(0.1 -0.1)">
       <use xlink:href="#DejaVuSans-30"/>
       <use xlink:href="#DejaVuSans-2e" x="63.623047"/>
       <use xlink:href="#DejaVuSans-30" x="95.410156"/>
       <use xlink:href="#DejaVuSans-30" x="159.033203"/>
       <use xlink:href="#DejaVuSans-36" x="222.65625"/>
       <use xlink:href="#DejaVuSans-35" x="286.279297"/>
      </g>
     </g>
    </g>
    <g id="text_35">
     <!-- Integrated SAXS -->
     <g transform="translate(241.078125 284.903867)rotate(-90)scale(0.1 -0.1)">
      <defs>
       <path id="DejaVuSans-49" d="M 628 4666 
L 1259 4666 
L 1259 0 
L 628 0 
L 628 4666 
z
" transform="scale(0.015625)"/>
       <path id="DejaVuSans-67" d="M 2906 1791 
Q 2906 2416 2648 2759 
Q 2391 3103 1925 3103 
Q 1463 3103 1205 2759 
Q 947 2416 947 1791 
Q 947 1169 1205 825 
Q 1463 481 1925 481 
Q 2391 481 2648 825 
Q 2906 1169 2906 1791 
z
M 3481 434 
Q 3481 -459 3084 -895 
Q 2688 -1331 1869 -1331 
Q 1566 -1331 1297 -1286 
Q 1028 -1241 775 -1147 
L 775 -588 
Q 1028 -725 1275 -790 
Q 1522 -856 1778 -856 
Q 2344 -856 2625 -561 
Q 2906 -266 2906 331 
L 2906 616 
Q 2728 306 2450 153 
Q 2172 0 1784 0 
Q 1141 0 747 490 
Q 353 981 353 1791 
Q 353 2603 747 3093 
Q 1141 3584 1784 3584 
Q 2172 3584 2450 3431 
Q 2728 3278 2906 2969 
L 2906 3500 
L 3481 3500 
L 3481 434 
z
" transform="scale(0.015625)"/>
       <path id="DejaVuSans-64" d="M 2906 2969 
L 2906 4863 
L 3481 4863 
L 3481 0 
L 2906 0 
L 2906 525 
Q 2725 213 2448 61 
Q 2172 -91 1784 -91 
Q 1150 -91 751 415 
Q 353 922 353 1747 
Q 353 2572 751 3078 
Q 1150 3584 1784 3584 
Q 2172 3584 2448 3432 
Q 2725 3281 2906 2969 
z
M 947 1747 
Q 947 1113 1208 752 
Q 1469 391 1925 391 
Q 2381 391 2643 752 
Q 2906 1113 2906 1747 
Q 2906 2381 2643 2742 
Q 2381 3103 1925 3103 
Q 1469 3103 1208 2742 
Q 947 2381 947 1747 
z
" transform="scale(0.015625)"/>
       <path id="DejaVuSans-53" d="M 3425 4513 
L 3425 3897 
Q 3066 4069 2747 4153 
Q 2428 4238 2131 4238 
Q 1616 4238 1336 4038 
Q 1056 3838 1056 3469 
Q 1056 3159 1242 3001 
Q 1428 2844 1947 2747 
L 2328 2669 
Q 3034 2534 3370 2195 
Q 3706 1856 3706 1288 
Q 3706 609 3251 259 
Q 2797 -91 1919 -91 
Q 1588 -91 1214 -16 
Q 841 59 441 206 
L 441 856 
Q 825 641 1194 531 
Q 1563 422 1919 422 
Q 2459 422 2753 634 
Q 3047 847 3047 1241 
Q 3047 1584 2836 1778 
Q 2625 1972 2144 2069 
L 1759 2144 
Q 1053 2284 737 2584 
Q 422 2884 422 3419 
Q 422 4038 858 4394 
Q 1294 4750 2059 4750 
Q 2388 4750 2728 4690 
Q 3069 4631 3425 4513 
z
" transform="scale(0.015625)"/>
       <path id="DejaVuSans-41" d="M 2188 4044 
L 1331 1722 
L 3047 1722 
L 2188 4044 
z
M 1831 4666 
L 2547 4666 
L 4325 0 
L 3669 0 
L 3244 1197 
L 1141 1197 
L 716 0 
L 50 0 
L 1831 4666 
z
" transform="scale(0.015625)"/>
       <path id="DejaVuSans-58" d="M 403 4666 
L 1081 4666 
L 2241 2931 
L 3406 4666 
L 4084 4666 
L 2584 2425 
L 4184 0 
L 3506 0 
L 2194 1984 
L 872 0 
L 191 0 
L 1856 2491 
L 403 4666 
z
" transform="scale(0.015625)"/>
      </defs>
      <use xlink:href="#DejaVuSans-49"/>
      <use xlink:href="#DejaVuSans-6e" x="29.492188"/>
      <use xlink:href="#DejaVuSans-74" x="92.871094"/>
      <use xlink:href="#DejaVuSans-65" x="132.080078"/>
      <use xlink:href="#DejaVuSans-67" x="193.603516"/>
      <use xlink:href="#DejaVuSans-72" x="257.080078"/>
      <use xlink:href="#DejaVuSans-61" x="298.193359"/>
      <use xlink:href="#DejaVuSans-74" x="359.472656"/>
      <use xlink:href="#DejaVuSans-65" x="398.681641"/>
      <use xlink:href="#DejaVuSans-64" x="460.205078"/>
      <use xlink:href="#DejaVuSans-20" x="523.681641"/>
      <use xlink:href="#DejaVuSans-53" x="555.46875"/>
      <use xlink:href="#DejaVuSans-41" x="620.820312"/>
      <use xlink:href="#DejaVuSans-58" x="689.228516"/>
      <use xlink:href="#DejaVuSans-53" x="757.734375"/>
     </g>
    </g>
   </g>
   <g id="line2d_83">
    <g clip-path="url(#pb570aaffcc)">
     <use xlink:href="#mbef0d1aedb" x="296.338361" y="188.749783" style="fill: #1f77b4; stroke: #1f77b4"/>
     <use xlink:href="#mbef0d1aedb" x="332.287979" y="201.299214" style="fill: #1f77b4; stroke: #1f77b4"/>
     <use xlink:href="#mbef0d1aedb" x="368.237597" y="244.548111" style="fill: #1f77b4; stroke: #1f77b4"/>
     <use xlink:href="#mbef0d1aedb" x="404.187215" y="203.311679" style="fill: #1f77b4; stroke: #1f77b4"/>
     <use xlink:href="#mbef0d1aedb" x="440.136833" y="298.934513" style="fill: #1f77b4; stroke: #1f77b4"/>
    </g>
   </g>
   <g id="patch_13">
    <path d="M 289.148438 304.44375 
L 289.148438 183.240547 
" style="fill: none; stroke: #000000; stroke-width: 0.8; stroke-linejoin: miter; stroke-linecap: square"/>
   </g>
   <g id="patch_14">
    <path d="M 447.326756 304.44375 
L 447.326756 183.240547 
" style="fill: none; stroke: #000000; stroke-width: 0.8; stroke-linejoin: miter; stroke-linecap: square"/>
   </g>
   <g id="patch_15">
    <path d="M 289.148438 304.44375 
L 447.326756 304.44375 
" style="fill: none; stroke: #000000; stroke-width: 0.8; stroke-linejoin: miter; stroke-linecap: square"/>
   </g>
   <g id="patch_16">
    <path d="M 289.148438 183.240547 
L 447.326756 183.240547 
" style="fill: none; stroke: #000000; stroke-width: 0.8; stroke-linejoin: miter; stroke-linecap: square"/>
   </g>
  </g>
 </g>
 <defs>
  <clipPath id="pd4b70cf059">
   <rect x="61.828125" y="10.8" width="385.498631" height="121.203203"/>
  </clipPath>
  <clipPath id="pf67baba9e1">
   <rect x="61.828125" y="183.240547" width="158.178319" height="121.203203"/>
  </clipPath>
  <clipPath id="pb570aaffcc">
   <rect x="289.148438" y="183.240547" width="158.178319" height="121.203203"/>
  </clipPath>
 </defs>
</svg>
