<?xml version="1.0" encoding="utf-8" standalone="no"?>
<!DOCTYPE svg PUBLIC "-//W3C//DTD SVG 1.1//EN"
  "http://www.w3.org/Graphics/SVG/1.1/DTD/svg11.dtd">
<svg xmlns:xlink="http://www.w3.org/1999/xlink" width="460.8pt" height="345.6pt" viewBox="0 0 460.8 345.6" xmlns="http://www.w3.org/2000/svg" version="1.1">
 <metadata>
  <rdf:RDF xmlns:dc="http://purl.org/dc/elements/1.1/" xmlns:cc="http://creativecommons.org/ns#" xmlns:rdf="http://www.w3.org/1999/02/22-rdf-syntax-ns#">
   <cc:Work>
    <dc:type rdf:resource="http://purl.org/dc/dcmitype/StillImage"/>
    <dc:date>2025-06-23T18:27:26.511146</dc:date>
    <dc:format>image/svg+xml</dc:format>
    <dc:creator>
     <cc:Agent>
      <dc:title>Matplotlib v3.5.3, https://matplotlib.org/</dc:title>
     </cc:Agent>
    </dc:creator>
   </cc:Work>
  </rdf:RDF>
 </metadata>
 <defs>
  <style type="text/css">*{stroke-linejoin: round; stroke-linecap: butt}</style>
 </defs>
 <g id="figure_1">
  <g id="patch_1">
   <path d="M 0 345.6 
L 460.8 345.6 
L 460.8 0 
L 0 0 
z
" style="fill: #ffffff"/>
  </g>
  <g id="axes_1">
   <g id="patch_2">
    <path d="M 63.11 298.456 
L 450 298.456 
L 450 26.88 
L 63.11 26.88 
z
" style="fill: #ffffff"/>
   </g>
   <g id="matplotlib.axis_1">
    <g id="xtick_1">
     <g id="line2d_1">
      <defs>
       <path id="me69f6018ab" d="M 0 0 
L 0 3.5 
" style="stroke: #000000; stroke-width: 0.8"/>
      </defs>
      <g>
       <use xlink:href="#me69f6018ab" x="135.824299" y="298.456" style="stroke: #000000; stroke-width: 0.8"/>
      </g>
     </g>
     <g id="text_1">
      <!-- 0.5 -->
      <g transform="translate(127.872737 313.054437)scale(0.1 -0.1)">
       <defs>
        <path id="DejaVuSans-30" d="M 2034 4250 
Q 1547 4250 1301 3770 
Q 1056 3291 1056 2328 
Q 1056 1369 1301 889 
Q 1547 409 2034 409 
Q 2525 409 2770 889 
Q 3016 1369 3016 2328 
Q 3016 3291 2770 3770 
Q 2525 4250 2034 4250 
z
M 2034 4750 
Q 2819 4750 3233 4129 
Q 3647 3509 3647 2328 
Q 3647 1150 3233 529 
Q 2819 -91 2034 -91 
Q 1250 -91 836 529 
Q 422 1150 422 2328 
Q 422 3509 836 4129 
Q 1250 4750 2034 4750 
z
" transform="scale(0.015625)"/>
        <path id="DejaVuSans-2e" d="M 684 794 
L 1344 794 
L 1344 0 
L 684 0 
L 684 794 
z
" transform="scale(0.015625)"/>
        <path id="DejaVuSans-35" d="M 691 4666 
L 3169 4666 
L 3169 4134 
L 1269 4134 
L 1269 2991 
Q 1406 3038 1543 3061 
Q 1681 3084 1819 3084 
Q 2600 3084 3056 2656 
Q 3513 2228 3513 1497 
Q 3513 744 3044 326 
Q 2575 -91 1722 -91 
Q 1428 -91 1123 -41 
Q 819 9 494 109 
L 494 744 
Q 775 591 1075 516 
Q 1375 441 1709 441 
Q 2250 441 2565 725 
Q 2881 1009 2881 1497 
Q 2881 1984 2565 2268 
Q 2250 2553 1709 2553 
Q 1456 2553 1204 2497 
Q 953 2441 691 2322 
L 691 4666 
z
" transform="scale(0.015625)"/>
       </defs>
       <use xlink:href="#DejaVuSans-30"/>
       <use xlink:href="#DejaVuSans-2e" x="63.623047"/>
       <use xlink:href="#DejaVuSans-35" x="95.410156"/>
      </g>
     </g>
    </g>
    <g id="xtick_2">
     <g id="line2d_2">
      <g>
       <use xlink:href="#me69f6018ab" x="220.646744" y="298.456" style="stroke: #000000; stroke-width: 0.8"/>
      </g>
     </g>
     <g id="text_2">
      <!-- 1.0 -->
      <g transform="translate(212.695182 313.054437)scale(0.1 -0.1)">
       <defs>
        <path id="DejaVuSans-31" d="M 794 531 
L 1825 531 
L 1825 4091 
L 703 3866 
L 703 4441 
L 1819 4666 
L 2450 4666 
L 2450 531 
L 3481 531 
L 3481 0 
L 794 0 
L 794 531 
z
" transform="scale(0.015625)"/>
       </defs>
       <use xlink:href="#DejaVuSans-31"/>
       <use xlink:href="#DejaVuSans-2e" x="63.623047"/>
       <use xlink:href="#DejaVuSans-30" x="95.410156"/>
      </g>
     </g>
    </g>
    <g id="xtick_3">
     <g id="line2d_3">
      <g>
       <use xlink:href="#me69f6018ab" x="305.469189" y="298.456" style="stroke: #000000; stroke-width: 0.8"/>
      </g>
     </g>
     <g id="text_3">
      <!-- 1.5 -->
      <g transform="translate(297.517627 313.054437)scale(0.1 -0.1)">
       <use xlink:href="#DejaVuSans-31"/>
       <use xlink:href="#DejaVuSans-2e" x="63.623047"/>
       <use xlink:href="#DejaVuSans-35" x="95.410156"/>
      </g>
     </g>
    </g>
    <g id="xtick_4">
     <g id="line2d_4">
      <g>
       <use xlink:href="#me69f6018ab" x="390.291634" y="298.456" style="stroke: #000000; stroke-width: 0.8"/>
      </g>
     </g>
     <g id="text_4">
      <!-- 2.0 -->
      <g transform="translate(382.340072 313.054437)scale(0.1 -0.1)">
       <defs>
        <path id="DejaVuSans-32" d="M 1228 531 
L 3431 531 
L 3431 0 
L 469 0 
L 469 531 
Q 828 903 1448 1529 
Q 2069 2156 2228 2338 
Q 2531 2678 2651 2914 
Q 2772 3150 2772 3378 
Q 2772 3750 2511 3984 
Q 2250 4219 1831 4219 
Q 1534 4219 1204 4116 
Q 875 4013 500 3803 
L 500 4441 
Q 881 4594 1212 4672 
Q 1544 4750 1819 4750 
Q 2544 4750 2975 4387 
Q 3406 4025 3406 3419 
Q 3406 3131 3298 2873 
Q 3191 2616 2906 2266 
Q 2828 2175 2409 1742 
Q 1991 1309 1228 531 
z
" transform="scale(0.015625)"/>
       </defs>
       <use xlink:href="#DejaVuSans-32"/>
       <use xlink:href="#DejaVuSans-2e" x="63.623047"/>
       <use xlink:href="#DejaVuSans-30" x="95.410156"/>
      </g>
     </g>
    </g>
    <g id="text_5">
     <!-- q ($\AA^{-1}$) -->
     <g transform="translate(238.655 328.434125)scale(0.1 -0.1)">
      <defs>
       <path id="DejaVuSans-71" d="M 947 1747 
Q 947 1113 1208 752 
Q 1469 391 1925 391 
Q 2381 391 2643 752 
Q 2906 1113 2906 1747 
Q 2906 2381 2643 2742 
Q 2381 3103 1925 3103 
Q 1469 3103 1208 2742 
Q 947 2381 947 1747 
z
M 2906 525 
Q 2725 213 2448 61 
Q 2172 -91 1784 -91 
Q 1150 -91 751 415 
Q 353 922 353 1747 
Q 353 2572 751 3078 
Q 1150 3584 1784 3584 
Q 2172 3584 2448 3432 
Q 2725 3281 2906 2969 
L 2906 3500 
L 3481 3500 
L 3481 -1331 
L 2906 -1331 
L 2906 525 
z
" transform="scale(0.015625)"/>
       <path id="DejaVuSans-20" transform="scale(0.015625)"/>
       <path id="DejaVuSans-28" d="M 1984 4856 
Q 1566 4138 1362 3434 
Q 1159 2731 1159 2009 
Q 1159 1288 1364 580 
Q 1569 -128 1984 -844 
L 1484 -844 
Q 1016 -109 783 600 
Q 550 1309 550 2009 
Q 550 2706 781 3412 
Q 1013 4119 1484 4856 
L 1984 4856 
z
" transform="scale(0.015625)"/>
       <path id="DejaVuSans-Oblique-c5" d="M 3188 5081 
Q 3188 5278 3048 5417 
Q 2909 5556 2713 5556 
Q 2513 5556 2377 5420 
Q 2241 5284 2241 5081 
Q 2241 4884 2377 4746 
Q 2513 4609 2713 4609 
Q 2909 4609 3048 4746 
Q 3188 4884 3188 5081 
z
M 2203 4397 
Q 2034 4513 1945 4689 
Q 1856 4866 1856 5081 
Q 1856 5438 2106 5689 
Q 2356 5941 2713 5941 
Q 3069 5941 3320 5689 
Q 3572 5438 3572 5081 
Q 3572 4834 3458 4643 
Q 3344 4453 3128 4341 
L 3938 0 
L 3278 0 
L 3084 1197 
L 984 1197 
L 325 0 
L -341 0 
L 2203 4397 
z
M 2584 4044 
L 1275 1722 
L 2988 1722 
L 2584 4044 
z
" transform="scale(0.015625)"/>
       <path id="DejaVuSans-2212" d="M 678 2272 
L 4684 2272 
L 4684 1741 
L 678 1741 
L 678 2272 
z
" transform="scale(0.015625)"/>
       <path id="DejaVuSans-29" d="M 513 4856 
L 1013 4856 
Q 1481 4119 1714 3412 
Q 1947 2706 1947 2009 
Q 1947 1309 1714 600 
Q 1481 -109 1013 -844 
L 513 -844 
Q 928 -128 1133 580 
Q 1338 1288 1338 2009 
Q 1338 2731 1133 3434 
Q 928 4138 513 4856 
z
" transform="scale(0.015625)"/>
      </defs>
      <use xlink:href="#DejaVuSans-71" transform="translate(0 0.171875)"/>
      <use xlink:href="#DejaVuSans-20" transform="translate(63.476562 0.171875)"/>
      <use xlink:href="#DejaVuSans-28" transform="translate(95.263672 0.171875)"/>
      <use xlink:href="#DejaVuSans-Oblique-c5" transform="translate(134.277344 0.171875)"/>
      <use xlink:href="#DejaVuSans-2212" transform="translate(212.49138 38.453125)scale(0.7)"/>
      <use xlink:href="#DejaVuSans-31" transform="translate(271.143724 38.453125)scale(0.7)"/>
      <use xlink:href="#DejaVuSans-29" transform="translate(318.414232 0.171875)"/>
     </g>
    </g>
   </g>
   <g id="matplotlib.axis_2">
    <g id="ytick_1">
     <g id="line2d_5">
      <defs>
       <path id="ma586ad6378" d="M 0 0 
L -3.5 0 
" style="stroke: #000000; stroke-width: 0.8"/>
      </defs>
      <g>
       <use xlink:href="#ma586ad6378" x="63.11" y="297.296518" style="stroke: #000000; stroke-width: 0.8"/>
      </g>
     </g>
     <g id="text_6">
      <!-- 0.025 -->
      <g transform="translate(27.481875 301.095737)scale(0.1 -0.1)">
       <use xlink:href="#DejaVuSans-30"/>
       <use xlink:href="#DejaVuSans-2e" x="63.623047"/>
       <use xlink:href="#DejaVuSans-30" x="95.410156"/>
       <use xlink:href="#DejaVuSans-32" x="159.033203"/>
       <use xlink:href="#DejaVuSans-35" x="222.65625"/>
      </g>
     </g>
    </g>
    <g id="ytick_2">
     <g id="line2d_6">
      <g>
       <use xlink:href="#ma586ad6378" x="63.11" y="254.862823" style="stroke: #000000; stroke-width: 0.8"/>
      </g>
     </g>
     <g id="text_7">
      <!-- 0.030 -->
      <g transform="translate(27.481875 258.662042)scale(0.1 -0.1)">
       <defs>
        <path id="DejaVuSans-33" d="M 2597 2516 
Q 3050 2419 3304 2112 
Q 3559 1806 3559 1356 
Q 3559 666 3084 287 
Q 2609 -91 1734 -91 
Q 1441 -91 1130 -33 
Q 819 25 488 141 
L 488 750 
Q 750 597 1062 519 
Q 1375 441 1716 441 
Q 2309 441 2620 675 
Q 2931 909 2931 1356 
Q 2931 1769 2642 2001 
Q 2353 2234 1838 2234 
L 1294 2234 
L 1294 2753 
L 1863 2753 
Q 2328 2753 2575 2939 
Q 2822 3125 2822 3475 
Q 2822 3834 2567 4026 
Q 2313 4219 1838 4219 
Q 1578 4219 1281 4162 
Q 984 4106 628 3988 
L 628 4550 
Q 988 4650 1302 4700 
Q 1616 4750 1894 4750 
Q 2613 4750 3031 4423 
Q 3450 4097 3450 3541 
Q 3450 3153 3228 2886 
Q 3006 2619 2597 2516 
z
" transform="scale(0.015625)"/>
       </defs>
       <use xlink:href="#DejaVuSans-30"/>
       <use xlink:href="#DejaVuSans-2e" x="63.623047"/>
       <use xlink:href="#DejaVuSans-30" x="95.410156"/>
       <use xlink:href="#DejaVuSans-33" x="159.033203"/>
       <use xlink:href="#DejaVuSans-30" x="222.65625"/>
      </g>
     </g>
    </g>
    <g id="ytick_3">
     <g id="line2d_7">
      <g>
       <use xlink:href="#ma586ad6378" x="63.11" y="212.429128" style="stroke: #000000; stroke-width: 0.8"/>
      </g>
     </g>
     <g id="text_8">
      <!-- 0.035 -->
      <g transform="translate(27.481875 216.228346)scale(0.1 -0.1)">
       <use xlink:href="#DejaVuSans-30"/>
       <use xlink:href="#DejaVuSans-2e" x="63.623047"/>
       <use xlink:href="#DejaVuSans-30" x="95.410156"/>
       <use xlink:href="#DejaVuSans-33" x="159.033203"/>
       <use xlink:href="#DejaVuSans-35" x="222.65625"/>
      </g>
     </g>
    </g>
    <g id="ytick_4">
     <g id="line2d_8">
      <g>
       <use xlink:href="#ma586ad6378" x="63.11" y="169.995433" style="stroke: #000000; stroke-width: 0.8"/>
      </g>
     </g>
     <g id="text_9">
      <!-- 0.040 -->
      <g transform="translate(27.481875 173.794651)scale(0.1 -0.1)">
       <defs>
        <path id="DejaVuSans-34" d="M 2419 4116 
L 825 1625 
L 2419 1625 
L 2419 4116 
z
M 2253 4666 
L 3047 4666 
L 3047 1625 
L 3713 1625 
L 3713 1100 
L 3047 1100 
L 3047 0 
L 2419 0 
L 2419 1100 
L 313 1100 
L 313 1709 
L 2253 4666 
z
" transform="scale(0.015625)"/>
       </defs>
       <use xlink:href="#DejaVuSans-30"/>
       <use xlink:href="#DejaVuSans-2e" x="63.623047"/>
       <use xlink:href="#DejaVuSans-30" x="95.410156"/>
       <use xlink:href="#DejaVuSans-34" x="159.033203"/>
       <use xlink:href="#DejaVuSans-30" x="222.65625"/>
      </g>
     </g>
    </g>
    <g id="ytick_5">
     <g id="line2d_9">
      <g>
       <use xlink:href="#ma586ad6378" x="63.11" y="127.561738" style="stroke: #000000; stroke-width: 0.8"/>
      </g>
     </g>
     <g id="text_10">
      <!-- 0.045 -->
      <g transform="translate(27.481875 131.360956)scale(0.1 -0.1)">
       <use xlink:href="#DejaVuSans-30"/>
       <use xlink:href="#DejaVuSans-2e" x="63.623047"/>
       <use xlink:href="#DejaVuSans-30" x="95.410156"/>
       <use xlink:href="#DejaVuSans-34" x="159.033203"/>
       <use xlink:href="#DejaVuSans-35" x="222.65625"/>
      </g>
     </g>
    </g>
    <g id="ytick_6">
     <g id="line2d_10">
      <g>
       <use xlink:href="#ma586ad6378" x="63.11" y="85.128043" style="stroke: #000000; stroke-width: 0.8"/>
      </g>
     </g>
     <g id="text_11">
      <!-- 0.050 -->
      <g transform="translate(27.481875 88.927261)scale(0.1 -0.1)">
       <use xlink:href="#DejaVuSans-30"/>
       <use xlink:href="#DejaVuSans-2e" x="63.623047"/>
       <use xlink:href="#DejaVuSans-30" x="95.410156"/>
       <use xlink:href="#DejaVuSans-35" x="159.033203"/>
       <use xlink:href="#DejaVuSans-30" x="222.65625"/>
      </g>
     </g>
    </g>
    <g id="ytick_7">
     <g id="line2d_11">
      <g>
       <use xlink:href="#ma586ad6378" x="63.11" y="42.694348" style="stroke: #000000; stroke-width: 0.8"/>
      </g>
     </g>
     <g id="text_12">
      <!-- 0.055 -->
      <g transform="translate(27.481875 46.493566)scale(0.1 -0.1)">
       <use xlink:href="#DejaVuSans-30"/>
       <use xlink:href="#DejaVuSans-2e" x="63.623047"/>
       <use xlink:href="#DejaVuSans-30" x="95.410156"/>
       <use xlink:href="#DejaVuSans-35" x="159.033203"/>
       <use xlink:href="#DejaVuSans-35" x="222.65625"/>
      </g>
     </g>
    </g>
    <g id="text_13">
     <!-- $I(q)~\mathrm{(a.u.)}$ -->
     <g transform="translate(21.381875 188.118)rotate(-90)scale(0.1 -0.1)">
      <defs>
       <path id="DejaVuSans-Oblique-49" d="M 1081 4666 
L 1716 4666 
L 806 0 
L 172 0 
L 1081 4666 
z
" transform="scale(0.015625)"/>
       <path id="DejaVuSans-Oblique-71" d="M 2669 525 
Q 2438 222 2123 65 
Q 1809 -91 1428 -91 
Q 897 -91 595 267 
Q 294 625 294 1253 
Q 294 1759 480 2231 
Q 666 2703 1013 3078 
Q 1238 3322 1530 3453 
Q 1822 3584 2144 3584 
Q 2531 3584 2781 3431 
Q 3031 3278 3144 2969 
L 3244 3494 
L 3822 3494 
L 2888 -1319 
L 2309 -1319 
L 2669 525 
z
M 891 1338 
Q 891 875 1084 633 
Q 1278 391 1644 391 
Q 2188 391 2572 911 
Q 2956 1431 2956 2175 
Q 2956 2625 2757 2864 
Q 2559 3103 2188 3103 
Q 1916 3103 1684 2976 
Q 1453 2850 1281 2606 
Q 1100 2350 995 2006 
Q 891 1663 891 1338 
z
" transform="scale(0.015625)"/>
       <path id="DejaVuSans-61" d="M 2194 1759 
Q 1497 1759 1228 1600 
Q 959 1441 959 1056 
Q 959 750 1161 570 
Q 1363 391 1709 391 
Q 2188 391 2477 730 
Q 2766 1069 2766 1631 
L 2766 1759 
L 2194 1759 
z
M 3341 1997 
L 3341 0 
L 2766 0 
L 2766 531 
Q 2569 213 2275 61 
Q 1981 -91 1556 -91 
Q 1019 -91 701 211 
Q 384 513 384 1019 
Q 384 1609 779 1909 
Q 1175 2209 1959 2209 
L 2766 2209 
L 2766 2266 
Q 2766 2663 2505 2880 
Q 2244 3097 1772 3097 
Q 1472 3097 1187 3025 
Q 903 2953 641 2809 
L 641 3341 
Q 956 3463 1253 3523 
Q 1550 3584 1831 3584 
Q 2591 3584 2966 3190 
Q 3341 2797 3341 1997 
z
" transform="scale(0.015625)"/>
       <path id="DejaVuSans-75" d="M 544 1381 
L 544 3500 
L 1119 3500 
L 1119 1403 
Q 1119 906 1312 657 
Q 1506 409 1894 409 
Q 2359 409 2629 706 
Q 2900 1003 2900 1516 
L 2900 3500 
L 3475 3500 
L 3475 0 
L 2900 0 
L 2900 538 
Q 2691 219 2414 64 
Q 2138 -91 1772 -91 
Q 1169 -91 856 284 
Q 544 659 544 1381 
z
M 1991 3584 
L 1991 3584 
z
" transform="scale(0.015625)"/>
      </defs>
      <use xlink:href="#DejaVuSans-Oblique-49" transform="translate(0 0.125)"/>
      <use xlink:href="#DejaVuSans-28" transform="translate(29.492188 0.125)"/>
      <use xlink:href="#DejaVuSans-Oblique-71" transform="translate(68.505859 0.125)"/>
      <use xlink:href="#DejaVuSans-29" transform="translate(131.982422 0.125)"/>
      <use xlink:href="#DejaVuSans-28" transform="translate(203.466472 0.125)"/>
      <use xlink:href="#DejaVuSans-61" transform="translate(242.480144 0.125)"/>
      <use xlink:href="#DejaVuSans-2e" transform="translate(303.759441 0.125)"/>
      <use xlink:href="#DejaVuSans-75" transform="translate(355.028972 0.125)"/>
      <use xlink:href="#DejaVuSans-2e" transform="translate(418.407878 0.125)"/>
      <use xlink:href="#DejaVuSans-29" transform="translate(469.67741 0.125)"/>
     </g>
    </g>
   </g>
   <g id="line2d_12">
    <path d="M 80.695909 87.567618 
L 83.83625 117.414 
L 85.40642 126.759572 
L 86.976591 134.683814 
L 88.546761 141.926165 
L 91.687102 150.624743 
L 96.397614 159.073988 
L 97.967784 161.520464 
L 99.537955 162.787229 
L 101.108125 164.66238 
L 104.248466 167.838709 
L 105.818636 169.146757 
L 107.388807 170.237103 
L 108.958977 171.921536 
L 110.529148 173.289639 
L 112.099318 174.170057 
L 113.669489 175.350309 
L 115.239659 176.913666 
L 116.80983 180.868415 
L 118.38 183.907333 
L 119.95017 186.436598 
L 121.520341 187.965112 
L 123.090511 186.899796 
L 124.660682 187.004892 
L 126.230852 190.099293 
L 127.801023 191.434028 
L 129.371193 192.084247 
L 130.941364 194.139467 
L 132.511534 193.865615 
L 135.651875 196.552053 
L 137.222045 198.434497 
L 138.792216 200.734822 
L 140.362386 201.817072 
L 141.932557 202.201163 
L 143.502727 203.51933 
L 145.072898 204.982933 
L 146.643068 206.826351 
L 148.213239 208.033321 
L 151.35358 211.881608 
L 152.92375 212.781067 
L 154.49392 214.510992 
L 159.204432 219.086677 
L 160.774602 219.866549 
L 162.344773 221.261951 
L 163.914943 222.401928 
L 167.055284 225.930711 
L 168.625455 227.361391 
L 170.195625 229.705664 
L 171.765795 230.432965 
L 173.335966 231.76089 
L 174.906136 234.018529 
L 176.476307 234.9829 
L 179.616648 237.275515 
L 181.186818 239.160307 
L 182.756989 240.695371 
L 184.327159 240.854291 
L 185.89733 241.743842 
L 187.4675 243.322931 
L 189.03767 245.178553 
L 190.607841 245.793324 
L 192.178011 246.534047 
L 195.318352 249.303539 
L 196.888523 249.143443 
L 200.028864 251.322639 
L 201.599034 251.664835 
L 203.169205 252.559815 
L 204.739375 254.209963 
L 206.309545 254.732724 
L 207.879716 255.550432 
L 209.449886 256.598937 
L 211.020057 257.002127 
L 212.590227 257.632749 
L 214.160398 258.513968 
L 215.730568 259.926773 
L 217.300739 263.216383 
L 218.870909 260.777374 
L 220.44108 260.983251 
L 222.01125 261.421137 
L 223.58142 262.302832 
L 225.151591 262.608131 
L 226.721761 263.695847 
L 228.291932 263.981888 
L 229.862102 264.421422 
L 231.432273 265.130912 
L 233.002443 265.53594 
L 234.572614 265.757112 
L 237.712955 266.643559 
L 240.853295 266.995167 
L 243.993636 267.679292 
L 245.563807 267.333741 
L 247.133977 267.79457 
L 248.704148 267.390908 
L 250.274318 267.747759 
L 254.98483 267.26051 
L 256.555 266.396105 
L 258.12517 266.553166 
L 261.265511 265.590613 
L 262.835682 264.947563 
L 264.405852 264.60319 
L 267.546193 263.087575 
L 269.116364 262.339602 
L 270.686534 261.867128 
L 272.256705 261.004122 
L 273.826875 260.318742 
L 276.967216 258.290023 
L 278.537386 256.899277 
L 280.107557 256.049368 
L 281.677727 254.972973 
L 286.388239 251.103696 
L 287.958409 249.381986 
L 291.09875 245.542447 
L 292.66892 244.092848 
L 297.379432 238.298541 
L 298.949602 236.099595 
L 300.519773 233.65099 
L 302.089943 231.622365 
L 305.230284 227.079589 
L 306.800455 224.130508 
L 311.510966 216.321944 
L 314.651307 209.973027 
L 316.221477 206.997714 
L 328.782841 180.063417 
L 330.353011 176.487648 
L 331.923182 173.268921 
L 335.063523 166.12156 
L 338.203864 158.472228 
L 342.914375 147.192733 
L 346.054716 139.513497 
L 347.624886 135.574303 
L 350.765227 128.497511 
L 353.905568 120.710674 
L 355.475739 117.533901 
L 360.18625 107.01757 
L 361.75642 103.95114 
L 363.326591 101.230588 
L 364.896761 98.271033 
L 366.466932 95.571763 
L 368.037102 93.301282 
L 369.607273 90.727035 
L 371.177443 88.803144 
L 372.747614 87.246438 
L 374.317784 85.858175 
L 377.458125 83.464227 
L 379.028295 82.653963 
L 380.598466 81.005739 
L 382.168636 80.632503 
L 383.738807 80.880647 
L 385.308977 81.55415 
L 386.879148 82.724039 
L 388.449318 83.246933 
L 390.019489 85.142877 
L 393.15983 88.240269 
L 394.73 89.832127 
L 396.30017 91.922768 
L 397.870341 95.109783 
L 399.440511 97.952374 
L 404.151023 108.520938 
L 408.861534 120.947442 
L 410.431705 125.319202 
L 412.001875 130.470296 
L 413.572045 134.906833 
L 415.142216 140.021647 
L 418.282557 148.249344 
L 419.852727 153.526505 
L 422.993068 163.402908 
L 424.563239 168.290265 
L 426.133409 173.65453 
L 427.70358 178.548919 
L 429.27375 191.831483 
L 432.414091 202.874287 
L 432.414091 202.874287 
" clip-path="url(#p2dc869501e)" style="fill: none; stroke: #1f77b4; stroke-width: 1.5; stroke-linecap: square"/>
   </g>
   <g id="line2d_13">
    <path d="M 80.695909 39.224364 
L 83.83625 89.732806 
L 85.40642 107.396919 
L 86.976591 119.885184 
L 88.546761 131.076354 
L 90.116932 139.733975 
L 93.257273 153.567251 
L 94.827443 159.195494 
L 96.397614 161.747907 
L 97.967784 167.540397 
L 99.537955 170.079863 
L 101.108125 171.922253 
L 102.678295 175.82835 
L 104.248466 176.629796 
L 105.818636 178.47051 
L 107.388807 181.28301 
L 108.958977 182.30105 
L 110.529148 185.520614 
L 112.099318 186.792877 
L 113.669489 187.614627 
L 115.239659 190.43799 
L 116.80983 193.620803 
L 118.38 197.769151 
L 119.95017 199.890805 
L 121.520341 199.388099 
L 123.090511 201.287991 
L 124.660682 200.688973 
L 126.230852 204.681816 
L 127.801023 205.895356 
L 129.371193 205.802479 
L 130.941364 207.724088 
L 132.511534 208.940133 
L 135.651875 210.64784 
L 137.222045 211.867548 
L 138.792216 214.257028 
L 140.362386 214.995248 
L 141.932557 214.592772 
L 143.502727 217.537356 
L 145.072898 218.17297 
L 148.213239 220.924428 
L 149.783409 222.41024 
L 152.92375 224.6602 
L 154.49392 226.288633 
L 156.064091 227.065993 
L 157.634261 229.412697 
L 160.774602 232.032835 
L 162.344773 231.732134 
L 163.914943 233.886044 
L 165.485114 235.321545 
L 167.055284 235.901545 
L 168.625455 237.546539 
L 170.195625 239.509514 
L 171.765795 241.109263 
L 173.335966 241.211923 
L 174.906136 243.098749 
L 176.476307 244.672402 
L 178.046477 245.963455 
L 179.616648 247.814801 
L 181.186818 249.221303 
L 182.756989 250.361406 
L 184.327159 251.1689 
L 185.89733 251.080514 
L 187.4675 252.245718 
L 189.03767 254.546311 
L 190.607841 255.688483 
L 192.178011 256.108925 
L 193.748182 257.087611 
L 195.318352 258.695885 
L 196.888523 259.535118 
L 198.458693 259.253741 
L 200.028864 261.175631 
L 203.169205 263.014809 
L 204.739375 263.254187 
L 206.309545 264.70441 
L 207.879716 265.689399 
L 209.449886 265.743938 
L 211.020057 266.442439 
L 214.160398 268.159944 
L 215.730568 269.716007 
L 217.300739 273.516693 
L 218.870909 270.66619 
L 220.44108 271.681326 
L 226.721761 273.017138 
L 228.291932 273.182688 
L 229.862102 274.313581 
L 231.432273 275.151315 
L 233.002443 275.646658 
L 234.572614 275.318025 
L 236.142784 276.39793 
L 237.712955 276.303842 
L 239.283125 277.200527 
L 240.853295 277.082502 
L 242.423466 277.85545 
L 243.993636 277.371235 
L 245.563807 276.675399 
L 247.133977 277.383227 
L 248.704148 277.904443 
L 250.274318 277.36334 
L 251.844489 277.434499 
L 254.98483 276.93326 
L 258.12517 276.168258 
L 259.695341 275.135187 
L 261.265511 274.93302 
L 264.405852 274.075371 
L 265.976023 273.38612 
L 267.546193 272.942845 
L 269.116364 272.280333 
L 270.686534 270.810726 
L 272.256705 270.569437 
L 273.826875 269.204305 
L 275.397045 268.480953 
L 278.537386 265.636441 
L 280.107557 265.3418 
L 283.247898 262.64187 
L 284.818068 261.670256 
L 286.388239 260.046611 
L 287.958409 258.015054 
L 291.09875 254.704426 
L 294.239091 250.67724 
L 295.809261 249.095641 
L 297.379432 246.912982 
L 298.949602 245.368379 
L 300.519773 242.129293 
L 302.089943 240.827911 
L 305.230284 235.606857 
L 306.800455 232.537381 
L 308.370625 230.260646 
L 309.940795 227.496219 
L 311.510966 224.483109 
L 313.081136 221.812819 
L 316.221477 215.018535 
L 317.791648 212.511726 
L 319.361818 208.798577 
L 320.931989 205.600085 
L 324.07233 198.806392 
L 325.6425 195.639607 
L 327.21267 191.867786 
L 330.353011 185.205885 
L 333.493352 178.588221 
L 335.063523 174.725936 
L 336.633693 170.211157 
L 339.774034 163.561337 
L 341.344205 159.439229 
L 344.484545 152.158444 
L 346.054716 147.760523 
L 350.765227 136.922876 
L 352.335398 132.690324 
L 353.905568 129.516766 
L 355.475739 125.581604 
L 361.75642 112.590514 
L 364.896761 106.8006 
L 366.466932 104.376534 
L 368.037102 101.333727 
L 369.607273 98.961864 
L 371.177443 97.35591 
L 372.747614 95.954388 
L 374.317784 94.190121 
L 377.458125 91.905208 
L 379.028295 91.347586 
L 380.598466 89.114544 
L 382.168636 89.165091 
L 383.738807 89.060326 
L 385.308977 89.862342 
L 386.879148 90.281626 
L 388.449318 91.266444 
L 391.589659 94.893476 
L 393.15983 96.018675 
L 394.73 96.841833 
L 397.870341 102.203245 
L 401.010682 108.622684 
L 404.151023 115.736906 
L 410.431705 132.081523 
L 412.001875 137.171176 
L 413.572045 141.256164 
L 415.142216 146.193934 
L 416.712386 149.240626 
L 418.282557 154.482259 
L 419.852727 158.964246 
L 424.563239 174.698243 
L 427.70358 183.700513 
L 429.27375 197.101263 
L 432.414091 208.257054 
L 432.414091 208.257054 
" clip-path="url(#p2dc869501e)" style="fill: none; stroke: #ff7f0e; stroke-width: 1.5; stroke-linecap: square"/>
   </g>
   <g id="line2d_14">
    <path d="M 80.695909 40.637985 
L 82.26608 68.229212 
L 83.83625 91.095065 
L 85.40642 107.230044 
L 86.976591 121.617534 
L 88.546761 132.332522 
L 91.687102 147.325232 
L 93.257273 153.508428 
L 94.827443 159.175986 
L 96.397614 162.602442 
L 97.967784 166.425791 
L 99.537955 168.081058 
L 101.108125 172.147518 
L 102.678295 175.387001 
L 104.248466 176.683741 
L 105.818636 178.539182 
L 107.388807 180.08838 
L 108.958977 182.980097 
L 110.529148 184.100453 
L 112.099318 186.421067 
L 113.669489 187.503369 
L 115.239659 187.893269 
L 116.80983 192.948497 
L 118.38 196.010425 
L 119.95017 197.935305 
L 123.090511 200.415178 
L 124.660682 200.113692 
L 126.230852 201.973466 
L 127.801023 204.324699 
L 129.371193 204.810293 
L 130.941364 207.096646 
L 132.511534 206.7241 
L 134.081705 208.633696 
L 135.651875 208.576303 
L 137.222045 210.913052 
L 138.792216 212.812102 
L 140.362386 215.052301 
L 141.932557 215.325004 
L 143.502727 215.901005 
L 145.072898 216.864148 
L 146.643068 218.424294 
L 148.213239 218.978077 
L 149.783409 220.535945 
L 151.35358 223.183062 
L 154.49392 224.734023 
L 156.064091 226.120885 
L 157.634261 228.35557 
L 160.774602 230.313721 
L 162.344773 230.936832 
L 165.485114 233.085312 
L 167.055284 234.491143 
L 168.625455 235.553727 
L 170.195625 238.706041 
L 171.765795 239.085762 
L 173.335966 240.665643 
L 174.906136 242.075585 
L 176.476307 243.278586 
L 178.046477 245.785578 
L 179.616648 247.142593 
L 181.186818 248.183761 
L 182.756989 248.993116 
L 185.89733 250.185056 
L 187.4675 252.78849 
L 190.607841 254.174136 
L 192.178011 255.710805 
L 193.748182 256.166 
L 195.318352 257.320235 
L 196.888523 257.710516 
L 200.028864 259.68776 
L 201.599034 260.504452 
L 203.169205 261.090291 
L 204.739375 262.527292 
L 206.309545 263.380869 
L 207.879716 263.633621 
L 209.449886 264.697982 
L 211.020057 265.142672 
L 212.590227 266.223296 
L 214.160398 266.7725 
L 215.730568 268.314844 
L 217.300739 271.567946 
L 218.870909 269.207077 
L 220.44108 269.77176 
L 222.01125 270.119591 
L 223.58142 271.466237 
L 225.151591 271.509517 
L 226.721761 272.292944 
L 228.291932 273.316557 
L 229.862102 272.594374 
L 231.432273 273.52532 
L 233.002443 273.7279 
L 236.142784 275.307064 
L 237.712955 274.844743 
L 239.283125 275.616234 
L 240.853295 276.260868 
L 242.423466 276.25148 
L 243.993636 276.634968 
L 245.563807 276.466713 
L 247.133977 277.047572 
L 248.704148 276.247947 
L 250.274318 276.895423 
L 251.844489 276.164298 
L 253.414659 276.557588 
L 256.555 276.628525 
L 258.12517 275.554147 
L 259.695341 275.415891 
L 261.265511 275.125009 
L 262.835682 275.008786 
L 264.405852 274.716049 
L 265.976023 274.201617 
L 267.546193 273.55743 
L 272.256705 271.013067 
L 273.826875 270.422869 
L 275.397045 269.650399 
L 276.967216 268.517988 
L 278.537386 267.588401 
L 280.107557 266.819965 
L 281.677727 265.485563 
L 283.247898 264.639954 
L 284.818068 263.553417 
L 286.388239 261.498098 
L 287.958409 260.358202 
L 289.52858 258.633956 
L 291.09875 257.253149 
L 292.66892 255.610375 
L 294.239091 253.567351 
L 297.379432 250.20922 
L 298.949602 248.175296 
L 300.519773 245.58689 
L 302.089943 243.8953 
L 303.660114 241.844237 
L 305.230284 239.333917 
L 306.800455 236.289861 
L 308.370625 233.931854 
L 309.940795 231.9734 
L 311.510966 229.016252 
L 313.081136 226.523895 
L 314.651307 223.482211 
L 316.221477 220.98346 
L 317.791648 217.919828 
L 319.361818 214.329624 
L 320.931989 211.285934 
L 322.502159 207.430823 
L 324.07233 204.692399 
L 325.6425 201.198262 
L 328.782841 195.420944 
L 330.353011 191.638432 
L 333.493352 185.868474 
L 335.063523 182.486572 
L 336.633693 177.879038 
L 338.203864 174.152784 
L 341.344205 167.930213 
L 342.914375 163.645737 
L 346.054716 157.042768 
L 347.624886 153.04442 
L 349.195057 149.596416 
L 350.765227 146.453699 
L 352.335398 142.478125 
L 353.905568 139.355592 
L 355.475739 135.683958 
L 357.045909 132.372797 
L 358.61608 129.337204 
L 360.18625 126.66624 
L 361.75642 123.424787 
L 363.326591 120.899487 
L 364.896761 117.690249 
L 369.607273 110.901042 
L 371.177443 108.681294 
L 372.747614 107.623281 
L 374.317784 106.3198 
L 375.887955 104.539315 
L 377.458125 103.900062 
L 379.028295 103.90902 
L 380.598466 101.342317 
L 382.168636 101.647327 
L 383.738807 101.496662 
L 385.308977 102.097503 
L 386.879148 103.195114 
L 388.449318 103.661323 
L 390.019489 105.208887 
L 391.589659 107.229721 
L 393.15983 108.670127 
L 394.73 109.745088 
L 397.870341 114.420729 
L 404.151023 127.749808 
L 408.861534 139.219153 
L 410.431705 143.656352 
L 412.001875 148.826938 
L 415.142216 157.169132 
L 416.712386 161.829987 
L 419.852727 170.025153 
L 422.993068 179.44077 
L 426.133409 189.990128 
L 427.70358 195.66317 
L 429.27375 207.649597 
L 430.84392 212.481953 
L 432.414091 217.850534 
L 432.414091 217.850534 
" clip-path="url(#p2dc869501e)" style="fill: none; stroke: #2ca02c; stroke-width: 1.5; stroke-linecap: square"/>
   </g>
   <g id="line2d_15">
    <path d="M 80.695909 43.905958 
L 82.26608 69.811868 
L 83.83625 92.635476 
L 85.40642 108.190368 
L 86.976591 122.040444 
L 88.546761 132.698354 
L 90.116932 141.80773 
L 91.687102 147.523696 
L 93.257273 153.846941 
L 96.397614 161.742377 
L 97.967784 166.122265 
L 99.537955 168.789916 
L 101.108125 171.798042 
L 102.678295 174.544039 
L 104.248466 176.242398 
L 105.818636 178.171586 
L 107.388807 179.752349 
L 108.958977 182.462462 
L 110.529148 183.084465 
L 112.099318 185.056937 
L 113.669489 186.703697 
L 115.239659 188.051088 
L 116.80983 191.571199 
L 118.38 196.144507 
L 119.95017 197.523879 
L 121.520341 197.631834 
L 123.090511 199.068223 
L 124.660682 198.682881 
L 127.801023 202.648728 
L 129.371193 203.575038 
L 130.941364 205.744411 
L 132.511534 205.828374 
L 134.081705 207.871602 
L 135.651875 208.900132 
L 137.222045 210.515491 
L 138.792216 211.31058 
L 140.362386 212.851384 
L 141.932557 212.885722 
L 143.502727 215.517549 
L 145.072898 217.073221 
L 146.643068 217.442161 
L 148.213239 218.644701 
L 149.783409 220.221951 
L 151.35358 222.867651 
L 152.92375 222.63589 
L 154.49392 223.909164 
L 156.064091 224.648688 
L 157.634261 227.265702 
L 159.204432 228.317887 
L 160.774602 229.884862 
L 163.914943 231.505543 
L 165.485114 232.805316 
L 167.055284 235.384308 
L 168.625455 235.543224 
L 171.765795 238.796849 
L 173.335966 239.313172 
L 176.476307 243.475157 
L 178.046477 244.598029 
L 179.616648 245.915515 
L 181.186818 246.609552 
L 182.756989 248.12922 
L 184.327159 248.392012 
L 185.89733 249.534099 
L 190.607841 254.076306 
L 192.178011 255.153898 
L 193.748182 255.921098 
L 195.318352 257.498895 
L 196.888523 256.965204 
L 200.028864 259.120545 
L 201.599034 259.811956 
L 204.739375 261.48798 
L 206.309545 262.764712 
L 207.879716 263.185782 
L 209.449886 264.642492 
L 211.020057 264.962814 
L 212.590227 265.511391 
L 214.160398 266.577202 
L 215.730568 268.32034 
L 217.300739 271.467622 
L 218.870909 267.940097 
L 220.44108 269.607879 
L 222.01125 269.719692 
L 223.58142 270.734165 
L 225.151591 270.828538 
L 226.721761 272.346963 
L 231.432273 273.509787 
L 234.572614 274.737876 
L 236.142784 274.75681 
L 237.712955 274.418781 
L 239.283125 275.741177 
L 240.853295 275.827824 
L 242.423466 276.446056 
L 243.993636 276.659846 
L 245.563807 276.404038 
L 248.704148 277.056076 
L 250.274318 276.64051 
L 251.844489 276.436132 
L 253.414659 276.796891 
L 254.98483 276.411026 
L 256.555 276.344943 
L 259.695341 275.666107 
L 261.265511 275.580416 
L 262.835682 274.467192 
L 264.405852 274.197092 
L 265.976023 273.445257 
L 267.546193 273.483678 
L 270.686534 272.179984 
L 272.256705 271.421179 
L 273.826875 270.387756 
L 275.397045 269.193086 
L 276.967216 269.432114 
L 278.537386 267.394346 
L 280.107557 266.943193 
L 281.677727 265.169917 
L 283.247898 264.500627 
L 284.818068 263.50233 
L 287.958409 260.218966 
L 289.52858 258.192719 
L 292.66892 255.700386 
L 295.809261 252.255569 
L 297.379432 250.187356 
L 298.949602 248.91126 
L 300.519773 246.264124 
L 302.089943 244.272311 
L 303.660114 241.920202 
L 305.230284 239.316778 
L 308.370625 235.491775 
L 314.651307 224.664963 
L 316.221477 221.338306 
L 320.931989 213.023139 
L 322.502159 209.312874 
L 324.07233 206.5173 
L 325.6425 202.850048 
L 327.21267 200.227098 
L 328.782841 197.025848 
L 330.353011 194.294156 
L 331.923182 190.667666 
L 336.633693 181.212185 
L 338.203864 177.316265 
L 339.774034 174.062461 
L 349.195057 152.948066 
L 350.765227 149.949676 
L 353.905568 142.586248 
L 355.475739 139.8245 
L 357.045909 136.360999 
L 358.61608 133.605356 
L 361.75642 127.02401 
L 363.326591 124.823057 
L 364.896761 122.203026 
L 368.037102 117.616794 
L 371.177443 113.912853 
L 374.317784 110.726694 
L 375.887955 110.070945 
L 377.458125 109.176355 
L 379.028295 108.698228 
L 380.598466 105.845478 
L 382.168636 106.303637 
L 383.738807 106.418468 
L 385.308977 106.709267 
L 386.879148 107.494528 
L 390.019489 110.483844 
L 393.15983 113.953433 
L 394.73 114.011551 
L 396.30017 116.726288 
L 397.870341 119.701175 
L 399.440511 122.025443 
L 401.010682 125.423256 
L 402.580852 129.328417 
L 405.721193 135.884714 
L 407.291364 140.221372 
L 408.861534 143.402763 
L 410.431705 147.56869 
L 412.001875 153.013855 
L 415.142216 161.75674 
L 416.712386 166.105619 
L 418.282557 169.32559 
L 422.993068 183.061994 
L 424.563239 188.047782 
L 426.133409 193.771742 
L 427.70358 198.011706 
L 429.27375 209.963415 
L 430.84392 215.65258 
L 432.414091 220.824978 
L 432.414091 220.824978 
" clip-path="url(#p2dc869501e)" style="fill: none; stroke: #d62728; stroke-width: 1.5; stroke-linecap: square"/>
   </g>
   <g id="line2d_16">
    <path d="M 80.695909 45.808709 
L 82.26608 72.570089 
L 83.83625 93.54433 
L 86.976591 122.648742 
L 88.546761 132.81206 
L 91.687102 148.282154 
L 93.257273 152.366385 
L 94.827443 158.423361 
L 96.397614 161.0847 
L 97.967784 166.254421 
L 101.108125 170.698586 
L 102.678295 173.802797 
L 104.248466 176.16198 
L 105.818636 177.3558 
L 107.388807 179.632892 
L 108.958977 182.774056 
L 110.529148 183.348594 
L 112.099318 185.086627 
L 113.669489 186.550067 
L 115.239659 187.50026 
L 116.80983 191.132544 
L 118.38 196.557873 
L 119.95017 198.871933 
L 121.520341 199.204072 
L 123.090511 199.716502 
L 124.660682 199.294229 
L 126.230852 201.290931 
L 127.801023 204.89001 
L 129.371193 204.509256 
L 130.941364 206.879954 
L 132.511534 206.052905 
L 134.081705 207.127099 
L 135.651875 209.025778 
L 137.222045 210.2972 
L 138.792216 212.391933 
L 140.362386 213.670684 
L 143.502727 216.619805 
L 145.072898 217.400492 
L 146.643068 218.460985 
L 148.213239 220.976935 
L 149.783409 222.387581 
L 151.35358 224.202831 
L 152.92375 224.586814 
L 154.49392 226.018091 
L 156.064091 226.18692 
L 157.634261 229.100346 
L 159.204432 229.269405 
L 160.774602 230.159202 
L 162.344773 231.602154 
L 163.914943 233.575141 
L 165.485114 235.751135 
L 167.055284 236.10727 
L 168.625455 237.691316 
L 170.195625 240.631819 
L 171.765795 241.618229 
L 173.335966 242.985131 
L 174.906136 243.826455 
L 176.476307 244.86996 
L 178.046477 246.628093 
L 179.616648 248.939116 
L 181.186818 249.450503 
L 182.756989 250.909911 
L 184.327159 250.695916 
L 185.89733 252.076492 
L 187.4675 254.397163 
L 189.03767 255.976117 
L 190.607841 257.130932 
L 192.178011 257.934311 
L 193.748182 259.22721 
L 195.318352 261.271952 
L 196.888523 260.217397 
L 198.458693 262.237425 
L 200.028864 263.003371 
L 203.169205 265.150543 
L 206.309545 267.982078 
L 207.879716 267.817919 
L 209.449886 269.417325 
L 211.020057 269.623289 
L 212.590227 269.986869 
L 215.730568 273.80552 
L 217.300739 276.700139 
L 218.870909 273.404352 
L 220.44108 274.480956 
L 223.58142 276.25546 
L 225.151591 276.800071 
L 226.721761 278.341651 
L 228.291932 278.34674 
L 229.862102 279.059754 
L 231.432273 279.96004 
L 233.002443 279.897515 
L 234.572614 281.043853 
L 236.142784 281.700098 
L 237.712955 282.112785 
L 239.283125 282.226961 
L 240.853295 283.620647 
L 242.423466 284.127652 
L 243.993636 283.712627 
L 247.133977 285.216675 
L 248.704148 284.768516 
L 250.274318 284.928812 
L 251.844489 285.622311 
L 253.414659 285.63903 
L 254.98483 286.111636 
L 256.555 284.967123 
L 258.12517 285.832718 
L 261.265511 285.635443 
L 262.835682 284.942824 
L 264.405852 284.61706 
L 265.976023 284.42095 
L 267.546193 283.774033 
L 269.116364 283.854379 
L 270.686534 282.772095 
L 273.826875 282.671167 
L 276.967216 280.590365 
L 278.537386 280.801669 
L 280.107557 279.789518 
L 281.677727 279.211882 
L 283.247898 278.769896 
L 284.818068 277.443614 
L 287.958409 275.439137 
L 291.09875 272.608282 
L 292.66892 271.570897 
L 298.949602 265.949806 
L 300.519773 263.954016 
L 302.089943 262.85381 
L 303.660114 260.708847 
L 306.800455 256.937868 
L 309.940795 252.80093 
L 311.510966 250.677883 
L 313.081136 248.231934 
L 314.651307 246.291881 
L 316.221477 244.146872 
L 319.361818 238.81733 
L 320.931989 236.291785 
L 322.502159 233.280816 
L 324.07233 230.991542 
L 325.6425 228.126971 
L 327.21267 225.753114 
L 328.782841 222.875435 
L 331.923182 218.732301 
L 338.203864 207.739959 
L 349.195057 188.204082 
L 350.765227 185.918412 
L 352.335398 182.704543 
L 353.905568 180.214301 
L 358.61608 172.112388 
L 361.75642 167.2608 
L 363.326591 165.23707 
L 366.466932 161.68775 
L 368.037102 159.362439 
L 369.607273 157.65835 
L 371.177443 156.524785 
L 372.747614 155.995458 
L 374.317784 154.621819 
L 377.458125 153.04133 
L 379.028295 152.496275 
L 380.598466 150.73601 
L 382.168636 150.904344 
L 383.738807 150.902872 
L 385.308977 152.020317 
L 386.879148 152.972454 
L 388.449318 153.386673 
L 390.019489 155.618846 
L 391.589659 156.48257 
L 393.15983 157.675888 
L 394.73 158.510393 
L 396.30017 161.078854 
L 397.870341 163.072754 
L 399.440511 166.272723 
L 401.010682 169.203273 
L 402.580852 171.898422 
L 405.721193 178.39867 
L 407.291364 182.492046 
L 408.861534 185.337989 
L 410.431705 188.72227 
L 413.572045 197.87451 
L 415.142216 202.281071 
L 418.282557 208.282439 
L 421.422898 216.642545 
L 422.993068 220.412242 
L 424.563239 225.336162 
L 427.70358 233.923146 
L 429.27375 244.946423 
L 430.84392 249.150665 
L 432.414091 254.255717 
L 432.414091 254.255717 
" clip-path="url(#p2dc869501e)" style="fill: none; stroke: #9467bd; stroke-width: 1.5; stroke-linecap: square"/>
   </g>
   <g id="line2d_17">
    <path d="M 80.695909 57.050253 
L 82.26608 80.093998 
L 83.83625 99.524745 
L 85.40642 113.51598 
L 86.976591 125.369585 
L 88.546761 135.711858 
L 90.116932 140.814225 
L 91.687102 147.336122 
L 93.257273 153.29098 
L 94.827443 157.848287 
L 96.397614 160.055615 
L 97.967784 164.929544 
L 99.537955 167.190553 
L 101.108125 169.111969 
L 102.678295 172.256441 
L 104.248466 174.250538 
L 105.818636 175.526871 
L 107.388807 178.46278 
L 108.958977 178.098543 
L 110.529148 180.248659 
L 112.099318 182.752991 
L 113.669489 183.588687 
L 115.239659 185.335591 
L 116.80983 189.733162 
L 118.38 193.695948 
L 119.95017 194.701431 
L 121.520341 195.567066 
L 123.090511 195.133461 
L 124.660682 195.592484 
L 126.230852 199.491618 
L 127.801023 199.612157 
L 129.371193 200.068758 
L 132.511534 203.343749 
L 134.081705 204.300312 
L 135.651875 205.914627 
L 137.222045 207.69301 
L 138.792216 209.084514 
L 140.362386 211.228374 
L 141.932557 210.427274 
L 143.502727 211.635342 
L 145.072898 212.266782 
L 146.643068 214.84909 
L 148.213239 216.341291 
L 149.783409 217.411486 
L 151.35358 219.355345 
L 152.92375 219.201091 
L 154.49392 221.656045 
L 156.064091 222.507472 
L 157.634261 224.171048 
L 159.204432 226.296767 
L 160.774602 227.843352 
L 162.344773 228.391913 
L 163.914943 228.582457 
L 165.485114 230.322824 
L 167.055284 232.344579 
L 168.625455 233.742051 
L 170.195625 234.355744 
L 171.765795 235.451997 
L 173.335966 238.156876 
L 174.906136 239.221679 
L 179.616648 243.190653 
L 182.756989 245.190308 
L 184.327159 247.668474 
L 185.89733 247.105373 
L 187.4675 248.932904 
L 190.607841 251.979179 
L 192.178011 251.810016 
L 193.748182 253.237593 
L 195.318352 254.367689 
L 200.028864 256.624291 
L 201.599034 258.304923 
L 203.169205 258.824477 
L 204.739375 260.698795 
L 206.309545 260.765353 
L 207.879716 261.069788 
L 209.449886 262.514177 
L 211.020057 263.455977 
L 212.590227 264.162695 
L 214.160398 265.076857 
L 215.730568 265.653094 
L 217.300739 269.427761 
L 218.870909 266.829045 
L 220.44108 267.886828 
L 222.01125 268.60249 
L 223.58142 269.031866 
L 225.151591 269.321607 
L 226.721761 270.524588 
L 228.291932 271.357705 
L 231.432273 272.071185 
L 233.002443 272.765906 
L 234.572614 272.818572 
L 236.142784 273.516036 
L 237.712955 274.075229 
L 239.283125 273.934828 
L 240.853295 274.845242 
L 242.423466 274.870168 
L 243.993636 276.230247 
L 245.563807 275.699858 
L 247.133977 276.273631 
L 248.704148 275.750501 
L 250.274318 275.597963 
L 251.844489 275.331372 
L 253.414659 276.403865 
L 254.98483 275.439954 
L 256.555 275.252222 
L 258.12517 275.37771 
L 259.695341 274.45989 
L 261.265511 274.068461 
L 262.835682 273.910554 
L 264.405852 273.9446 
L 265.976023 273.670455 
L 267.546193 272.883858 
L 269.116364 272.476242 
L 270.686534 270.981587 
L 275.397045 269.020929 
L 276.967216 268.538946 
L 278.537386 267.531132 
L 280.107557 266.753618 
L 281.677727 265.567603 
L 283.247898 264.544787 
L 284.818068 263.309219 
L 287.958409 259.899842 
L 289.52858 258.514719 
L 291.09875 257.447625 
L 292.66892 255.723572 
L 294.239091 253.761389 
L 295.809261 252.188901 
L 302.089943 244.687779 
L 305.230284 239.533557 
L 306.800455 237.664049 
L 308.370625 235.548335 
L 313.081136 227.373439 
L 314.651307 225.217978 
L 316.221477 222.51196 
L 320.931989 213.275672 
L 325.6425 203.634519 
L 327.21267 201.023126 
L 328.782841 198.088397 
L 330.353011 195.416085 
L 331.923182 191.92841 
L 336.633693 183.037608 
L 339.774034 175.362912 
L 341.344205 172.476945 
L 342.914375 168.932582 
L 344.484545 165.949953 
L 346.054716 161.849768 
L 347.624886 158.546709 
L 350.765227 152.394397 
L 352.335398 148.792363 
L 353.905568 145.763476 
L 355.475739 142.981304 
L 358.61608 136.370476 
L 360.18625 133.92814 
L 361.75642 130.809862 
L 363.326591 128.591233 
L 364.896761 125.911982 
L 366.466932 123.513454 
L 371.177443 117.421464 
L 372.747614 116.621923 
L 374.317784 114.986394 
L 377.458125 113.002916 
L 379.028295 112.886053 
L 380.598466 109.943691 
L 383.738807 110.080875 
L 386.879148 111.79226 
L 388.449318 112.31947 
L 391.589659 115.623371 
L 393.15983 116.385194 
L 394.73 117.327951 
L 396.30017 119.986204 
L 397.870341 122.275182 
L 404.151023 135.473089 
L 407.291364 143.074209 
L 410.431705 150.55933 
L 412.001875 155.469805 
L 415.142216 164.322703 
L 416.712386 168.058631 
L 418.282557 171.103854 
L 419.852727 175.379587 
L 422.993068 185.299224 
L 424.563239 189.904806 
L 426.133409 195.329304 
L 427.70358 199.723517 
L 429.27375 212.588414 
L 432.414091 222.64741 
L 432.414091 222.64741 
" clip-path="url(#p2dc869501e)" style="fill: none; stroke: #8c564b; stroke-width: 1.5; stroke-linecap: square"/>
   </g>
   <g id="patch_3">
    <path d="M 63.11 298.456 
L 63.11 26.88 
" style="fill: none; stroke: #000000; stroke-width: 0.8; stroke-linejoin: miter; stroke-linecap: square"/>
   </g>
   <g id="patch_4">
    <path d="M 450 298.456 
L 450 26.88 
" style="fill: none; stroke: #000000; stroke-width: 0.8; stroke-linejoin: miter; stroke-linecap: square"/>
   </g>
   <g id="patch_5">
    <path d="M 63.11 298.456 
L 450 298.456 
" style="fill: none; stroke: #000000; stroke-width: 0.8; stroke-linejoin: miter; stroke-linecap: square"/>
   </g>
   <g id="patch_6">
    <path d="M 63.11 26.88 
L 450 26.88 
" style="fill: none; stroke: #000000; stroke-width: 0.8; stroke-linejoin: miter; stroke-linecap: square"/>
   </g>
   <g id="text_14">
    <!-- run 234145 -->
    <g transform="translate(221.671562 20.88)scale(0.12 -0.12)">
     <defs>
      <path id="DejaVuSans-72" d="M 2631 2963 
Q 2534 3019 2420 3045 
Q 2306 3072 2169 3072 
Q 1681 3072 1420 2755 
Q 1159 2438 1159 1844 
L 1159 0 
L 581 0 
L 581 3500 
L 1159 3500 
L 1159 2956 
Q 1341 3275 1631 3429 
Q 1922 3584 2338 3584 
Q 2397 3584 2469 3576 
Q 2541 3569 2628 3553 
L 2631 2963 
z
" transform="scale(0.015625)"/>
      <path id="DejaVuSans-6e" d="M 3513 2113 
L 3513 0 
L 2938 0 
L 2938 2094 
Q 2938 2591 2744 2837 
Q 2550 3084 2163 3084 
Q 1697 3084 1428 2787 
Q 1159 2491 1159 1978 
L 1159 0 
L 581 0 
L 581 3500 
L 1159 3500 
L 1159 2956 
Q 1366 3272 1645 3428 
Q 1925 3584 2291 3584 
Q 2894 3584 3203 3211 
Q 3513 2838 3513 2113 
z
" transform="scale(0.015625)"/>
     </defs>
     <use xlink:href="#DejaVuSans-72"/>
     <use xlink:href="#DejaVuSans-75" x="41.113281"/>
     <use xlink:href="#DejaVuSans-6e" x="104.492188"/>
     <use xlink:href="#DejaVuSans-20" x="167.871094"/>
     <use xlink:href="#DejaVuSans-32" x="199.658203"/>
     <use xlink:href="#DejaVuSans-33" x="263.28125"/>
     <use xlink:href="#DejaVuSans-34" x="326.904297"/>
     <use xlink:href="#DejaVuSans-31" x="390.527344"/>
     <use xlink:href="#DejaVuSans-34" x="454.150391"/>
     <use xlink:href="#DejaVuSans-35" x="517.773438"/>
    </g>
   </g>
   <g id="legend_1">
    <g id="patch_7">
     <path d="M 224.451875 122.94875 
L 288.658125 122.94875 
Q 290.658125 122.94875 290.658125 120.94875 
L 290.658125 33.88 
Q 290.658125 31.88 288.658125 31.88 
L 224.451875 31.88 
Q 222.451875 31.88 222.451875 33.88 
L 222.451875 120.94875 
Q 222.451875 122.94875 224.451875 122.94875 
z
" style="fill: #ffffff; opacity: 0.8; stroke: #cccccc; stroke-linejoin: miter"/>
    </g>
    <g id="line2d_18">
     <path d="M 226.451875 39.978437 
L 236.451875 39.978437 
L 246.451875 39.978437 
" style="fill: none; stroke: #1f77b4; stroke-width: 1.5; stroke-linecap: square"/>
    </g>
    <g id="text_15">
     <!-- 38mm -->
     <g transform="translate(254.451875 43.478437)scale(0.1 -0.1)">
      <defs>
       <path id="DejaVuSans-38" d="M 2034 2216 
Q 1584 2216 1326 1975 
Q 1069 1734 1069 1313 
Q 1069 891 1326 650 
Q 1584 409 2034 409 
Q 2484 409 2743 651 
Q 3003 894 3003 1313 
Q 3003 1734 2745 1975 
Q 2488 2216 2034 2216 
z
M 1403 2484 
Q 997 2584 770 2862 
Q 544 3141 544 3541 
Q 544 4100 942 4425 
Q 1341 4750 2034 4750 
Q 2731 4750 3128 4425 
Q 3525 4100 3525 3541 
Q 3525 3141 3298 2862 
Q 3072 2584 2669 2484 
Q 3125 2378 3379 2068 
Q 3634 1759 3634 1313 
Q 3634 634 3220 271 
Q 2806 -91 2034 -91 
Q 1263 -91 848 271 
Q 434 634 434 1313 
Q 434 1759 690 2068 
Q 947 2378 1403 2484 
z
M 1172 3481 
Q 1172 3119 1398 2916 
Q 1625 2713 2034 2713 
Q 2441 2713 2670 2916 
Q 2900 3119 2900 3481 
Q 2900 3844 2670 4047 
Q 2441 4250 2034 4250 
Q 1625 4250 1398 4047 
Q 1172 3844 1172 3481 
z
" transform="scale(0.015625)"/>
       <path id="DejaVuSans-6d" d="M 3328 2828 
Q 3544 3216 3844 3400 
Q 4144 3584 4550 3584 
Q 5097 3584 5394 3201 
Q 5691 2819 5691 2113 
L 5691 0 
L 5113 0 
L 5113 2094 
Q 5113 2597 4934 2840 
Q 4756 3084 4391 3084 
Q 3944 3084 3684 2787 
Q 3425 2491 3425 1978 
L 3425 0 
L 2847 0 
L 2847 2094 
Q 2847 2600 2669 2842 
Q 2491 3084 2119 3084 
Q 1678 3084 1418 2786 
Q 1159 2488 1159 1978 
L 1159 0 
L 581 0 
L 581 3500 
L 1159 3500 
L 1159 2956 
Q 1356 3278 1631 3431 
Q 1906 3584 2284 3584 
Q 2666 3584 2933 3390 
Q 3200 3197 3328 2828 
z
" transform="scale(0.015625)"/>
      </defs>
      <use xlink:href="#DejaVuSans-33"/>
      <use xlink:href="#DejaVuSans-38" x="63.623047"/>
      <use xlink:href="#DejaVuSans-6d" x="127.246094"/>
      <use xlink:href="#DejaVuSans-6d" x="224.658203"/>
     </g>
    </g>
    <g id="line2d_19">
     <path d="M 226.451875 54.656563 
L 236.451875 54.656563 
L 246.451875 54.656563 
" style="fill: none; stroke: #ff7f0e; stroke-width: 1.5; stroke-linecap: square"/>
    </g>
    <g id="text_16">
     <!-- 49mm -->
     <g transform="translate(254.451875 58.156563)scale(0.1 -0.1)">
      <defs>
       <path id="DejaVuSans-39" d="M 703 97 
L 703 672 
Q 941 559 1184 500 
Q 1428 441 1663 441 
Q 2288 441 2617 861 
Q 2947 1281 2994 2138 
Q 2813 1869 2534 1725 
Q 2256 1581 1919 1581 
Q 1219 1581 811 2004 
Q 403 2428 403 3163 
Q 403 3881 828 4315 
Q 1253 4750 1959 4750 
Q 2769 4750 3195 4129 
Q 3622 3509 3622 2328 
Q 3622 1225 3098 567 
Q 2575 -91 1691 -91 
Q 1453 -91 1209 -44 
Q 966 3 703 97 
z
M 1959 2075 
Q 2384 2075 2632 2365 
Q 2881 2656 2881 3163 
Q 2881 3666 2632 3958 
Q 2384 4250 1959 4250 
Q 1534 4250 1286 3958 
Q 1038 3666 1038 3163 
Q 1038 2656 1286 2365 
Q 1534 2075 1959 2075 
z
" transform="scale(0.015625)"/>
      </defs>
      <use xlink:href="#DejaVuSans-34"/>
      <use xlink:href="#DejaVuSans-39" x="63.623047"/>
      <use xlink:href="#DejaVuSans-6d" x="127.246094"/>
      <use xlink:href="#DejaVuSans-6d" x="224.658203"/>
     </g>
    </g>
    <g id="line2d_20">
     <path d="M 226.451875 69.334687 
L 236.451875 69.334687 
L 246.451875 69.334687 
" style="fill: none; stroke: #2ca02c; stroke-width: 1.5; stroke-linecap: square"/>
    </g>
    <g id="text_17">
     <!-- 59mm -->
     <g transform="translate(254.451875 72.834687)scale(0.1 -0.1)">
      <use xlink:href="#DejaVuSans-35"/>
      <use xlink:href="#DejaVuSans-39" x="63.623047"/>
      <use xlink:href="#DejaVuSans-6d" x="127.246094"/>
      <use xlink:href="#DejaVuSans-6d" x="224.658203"/>
     </g>
    </g>
    <g id="line2d_21">
     <path d="M 226.451875 84.012812 
L 236.451875 84.012812 
L 246.451875 84.012812 
" style="fill: none; stroke: #d62728; stroke-width: 1.5; stroke-linecap: square"/>
    </g>
    <g id="text_18">
     <!-- 69mm -->
     <g transform="translate(254.451875 87.512812)scale(0.1 -0.1)">
      <defs>
       <path id="DejaVuSans-36" d="M 2113 2584 
Q 1688 2584 1439 2293 
Q 1191 2003 1191 1497 
Q 1191 994 1439 701 
Q 1688 409 2113 409 
Q 2538 409 2786 701 
Q 3034 994 3034 1497 
Q 3034 2003 2786 2293 
Q 2538 2584 2113 2584 
z
M 3366 4563 
L 3366 3988 
Q 3128 4100 2886 4159 
Q 2644 4219 2406 4219 
Q 1781 4219 1451 3797 
Q 1122 3375 1075 2522 
Q 1259 2794 1537 2939 
Q 1816 3084 2150 3084 
Q 2853 3084 3261 2657 
Q 3669 2231 3669 1497 
Q 3669 778 3244 343 
Q 2819 -91 2113 -91 
Q 1303 -91 875 529 
Q 447 1150 447 2328 
Q 447 3434 972 4092 
Q 1497 4750 2381 4750 
Q 2619 4750 2861 4703 
Q 3103 4656 3366 4563 
z
" transform="scale(0.015625)"/>
      </defs>
      <use xlink:href="#DejaVuSans-36"/>
      <use xlink:href="#DejaVuSans-39" x="63.623047"/>
      <use xlink:href="#DejaVuSans-6d" x="127.246094"/>
      <use xlink:href="#DejaVuSans-6d" x="224.658203"/>
     </g>
    </g>
    <g id="line2d_22">
     <path d="M 226.451875 98.690937 
L 236.451875 98.690937 
L 246.451875 98.690937 
" style="fill: none; stroke: #9467bd; stroke-width: 1.5; stroke-linecap: square"/>
    </g>
    <g id="text_19">
     <!-- 79mm -->
     <g transform="translate(254.451875 102.190937)scale(0.1 -0.1)">
      <defs>
       <path id="DejaVuSans-37" d="M 525 4666 
L 3525 4666 
L 3525 4397 
L 1831 0 
L 1172 0 
L 2766 4134 
L 525 4134 
L 525 4666 
z
" transform="scale(0.015625)"/>
      </defs>
      <use xlink:href="#DejaVuSans-37"/>
      <use xlink:href="#DejaVuSans-39" x="63.623047"/>
      <use xlink:href="#DejaVuSans-6d" x="127.246094"/>
      <use xlink:href="#DejaVuSans-6d" x="224.658203"/>
     </g>
    </g>
    <g id="line2d_23">
     <path d="M 226.451875 113.369062 
L 236.451875 113.369062 
L 246.451875 113.369062 
" style="fill: none; stroke: #8c564b; stroke-width: 1.5; stroke-linecap: square"/>
    </g>
    <g id="text_20">
     <!-- 89mm -->
     <g transform="translate(254.451875 116.869062)scale(0.1 -0.1)">
      <use xlink:href="#DejaVuSans-38"/>
      <use xlink:href="#DejaVuSans-39" x="63.623047"/>
      <use xlink:href="#DejaVuSans-6d" x="127.246094"/>
      <use xlink:href="#DejaVuSans-6d" x="224.658203"/>
     </g>
    </g>
   </g>
  </g>
 </g>
 <defs>
  <clipPath id="p2dc869501e">
   <rect x="63.11" y="26.88" width="386.89" height="271.576"/>
  </clipPath>
 </defs>
</svg>
